<?xml version="1.0" encoding="UTF-8"?>
<svg id="Layer_1" xmlns="http://www.w3.org/2000/svg" version="1.1" viewBox="0 0 1254 836">
  <!-- Generator: Adobe Illustrator 29.5.0, SVG Export Plug-In . SVG Version: 2.1.0 Build 137)  -->
  <defs>
    <style>
      .st0 {
        fill: #a3a5ab;
      }

      .st1 {
        fill: #fce75a;
      }

      .st2 {
        fill: #451a15;
      }

      .st3 {
        fill: #373034;
      }

      .st4 {
        fill: #e5e1e0;
      }

      .st5 {
        fill: #e1a357;
      }

      .st6 {
        fill: #22262f;
      }

      .st7 {
        fill: #fa9006;
      }

      .st8 {
        fill: #f96004;
      }

      .st9 {
        fill: #644028;
      }

      .st10 {
        fill: #fefefe;
      }

      .st11 {
        fill: #f7e2a6;
      }

      .st12 {
        fill: #fbd012;
      }

      .st13 {
        fill: #955715;
      }
    </style>
  </defs>
  <path class="st6" d="M886.23,588.61c-29.99,7.98-47.34,10.04-95.34,11.29-32.27.87-61.12.94-64.17.19-3.04-.75-17.89-3.5-33-6.09-31.57-5.38-40.33-9.03-40.33-16.82,0-4.44,6.93-5.57,35.75-5.83,47.26-.41,98.6-4.59,102.19-8.24,1.58-1.66-3.85-9.86-12.1-18.32l-14.96-15.35-30.69,7.26c-37.73,8.95-63.1,9.25-64.68.83-.77-4.06,3.74-7.52,14.59-11.1,8.65-2.86,24.57-9.14,35.35-13.96,19.14-8.5,19.47-8.95,13.9-17.08-37.36-54.62-52.32-95.63-55.59-152.28-2.24-38.9-2.71-40.74-13.05-49.13-7.19-5.87-10.71-12.15-10.71-19.11,0-12.94,13.71-26.71,26.58-26.71,6.71,0,12.03-3.69,17.75-12.23,10.6-15.88,29.19-36.38,36.89-40.67,4.91-2.75,5.68-1.96,4.18,4.06-1.47,5.68-.07,7.45,5.83,7.45,4.29,0,7.77-1.28,7.77-2.82s5.35-3.05,11.92-3.35c6.56-.3,16.43-1.77,21.93-3.24,13.09-3.57,28.49.56,28.49,7.6,0,3.05,1.58,5.57,3.48,5.57s1.17,5.68-1.69,12.68c-4.88,12-4.66,13.09,4.22,21.63,10.93,10.46,20.39,27.65,17.05,31.04-1.25,1.32.88,2.48,4.73,2.63,6.71.26,6.71.41-.29,3.5l-7.33,3.24,7.33.19c4.03.11,28.78-2.29,55-5.34,56.25-6.51,63.18-6.81,58.48-2.22-1.91,1.84-25.78,5.98-52.98,9.22-48.95,5.83-110.85,14.48-112.9,15.84-.59.38.92,5.12,3.3,10.5,3.23,7.26,6.38,9.33,12.06,7.98,9.46-2.26,87.56-9.22,103.95-9.25,10.82-.04,11.92,1.02,11.92,11.36,0,12.87-5.68,16.48-25.63,16.36-7.08-.08-13.93,1.5-15.22,3.5-3.48,5.34-10.49-.56-10.49-8.92,0-12.04-13.93-9.4-15.33,2.9-1.03,9.03-3.59,10.8-22.26,15.46-19.51,4.85-25.19,8.95-18.33,13.24,1.5.94,12.65.64,24.75-.71,20.94-2.33,22.44-1.92,30.76,8.13,4.95,5.94,10.96,9.63,13.93,8.5,2.86-1.13,4.18-.41,2.93,1.66-2.9,4.82,7.41,4.7,24.79-.23,8.14-2.33,11.92-3.24,12.87-5.42.77-1.84-.44-4.59-2.79-9.78-.18-.49-.4-.98-.66-1.5-2.64-5.94-6.31-8.95-9.46-7.71-2.82,1.13-9.97,2.03-15.84,2.03-8.54,0-10.78,1.69-11.07,8.46-.33,8.05-.48,8.01-2.93-.94-2.35-8.5-1.36-9.67,10.45-12,23.03-4.63,34.21-3.69,31.86,2.6-1.17,3.12-.4,5.64,1.65,5.64s2.86,1.5,1.72,3.39c-1.72,2.86,5.54,7.9,11.48,7.9,1.06,0,1.25-5.94.44-13.17-.81-7.22-.18-13.17,1.43-13.17s2.93,5.3,2.93,11.74c0,11.25.55,11.66,11.73,9.37,13.13-2.71,17.45-7.67,17.53-20.16.04-4.93,2.35-8.46,5.46-8.46,5.57,0,4.25,8.61-2.75,17.87-1.94,2.6-2.46,4.7-1.1,4.7s.29,2.33-2.31,5.15c-2.57,2.86-6.75,4.36-9.28,3.39-2.57-1.02-4.62-.23-4.62,1.73,0,3.87-38.9,14.33-47.26,12.72-2.82-.56-6.12.6-7.33,2.52-2.02,3.2-80.78,23.51-90.83,23.44-2.31-.04-7.11-9.4-10.6-20.84-3.52-11.44-7.81-21.71-9.53-22.8s-3.12-6.02-3.12-10.95-1.65-10.01-3.67-11.29c-2.02-1.28-3.67-6.36-3.67-11.29s-1.65-10.01-3.67-11.29-3.67-5.64-3.67-9.67c0-6.73-3.19-14.86-11.66-29.83-1.76-3.12-4.18-8.54-5.32-12.08-2.71-8.2-18.26-13.02-52.03-16.06l-26.84-2.45,1.17,12.26c1.14,12.04,1.69,12.38,25.01,16.29,13.13,2.18,25.3,3.95,27.13,3.95,1.8-.04,5.54,6.73,8.25,15.01,2.75,8.28,6.42,18.43,8.21,22.57,1.76,4.14,9.42,25.32,17.01,47.02,7.59,21.71,16.72,46.5,20.28,55.04,6.38,15.31,6.71,15.5,20.53,12.79,7.74-1.54,20.68-4.63,28.75-6.85,8.07-2.22,19.62-4.85,25.67-5.79,6.05-.94,36.89-8.69,68.49-17.15,31.64-8.5,58.34-15.46,59.33-15.46s4.69-2.93,8.18-6.51c4.8-4.93,5.9-5.15,4.58-.94-1.87,5.91-27.57,15.69-81.92,31.26-18.15,5.23-29.3,9.59-24.75,9.74,8.36.3,11.37,9.18,4.58,13.47-5.61,3.57-4.36,8.77,3.08,12.83,8.14,4.51,23.47,1.05,20.09-4.48-1.47-2.48-.07-3.08,3.67-1.62,3.3,1.32,12.91-.11,21.34-3.16,8.4-3.05,16.02-4.78,16.9-3.87,2.71,2.75-18.96,12.53-23.83,10.76-2.53-.94-4.58-.11-4.58,1.81s-6.6,5.49-14.67,7.98l-14.63,4.51,5.24,12.94c3.23,7.86,3.89,13.81,1.76,15.16-1.94,1.2-5.76-3.2-8.47-9.86-5.65-13.81-8.69-8.88-6.49,10.57,1.03,8.95,3.7,13.81,8.36,15.05,4.18,1.13,6.89,5.19,6.89,10.38,0,13.13,11.22,13.54,44.77,1.54,34.69-12.38,44.77-14.07,22.7-3.76-16.83,7.82-22.22,17.08-15.29,26.22,3.96,5.19,3.81,5.45-.84,1.96-14.63-11.06-47.78-14.56-41.65-4.4,1.25,2.03,0,5.42-2.79,7.45-3.92,2.86-3.59,3.2,1.36,1.58,3.52-1.17,6.42-.26,6.42,2.03,0,6.66,38.65.41,63.87-10.38,30.36-12.94,35.24-14.45,22.29-6.88-6.05,3.54-11.84,7.67-12.83,9.18-1.91,2.82-38.43,18.81-64.17,28.1-8.07,2.9-31.17,9.71-51.33,15.09ZM1566.78,586.73l-2.49,13.17-28.27,1.09-28.27,1.09.04-12.38c.04-6.81,3.3-34.01,7.26-60.42,4-26.41,8.87-65.68,10.85-87.24,1.98-21.56,5.54-54.55,7.88-73.28l4.25-34.08h54.05v27.72l10.08-9.67c16.72-16.03,31.75-21.82,56.72-21.82,39.49,0,60.68,17.98,68.86,58.35,11.33,55.9-20.97,117.52-71.83,137.12-17.45,6.7-27.54,8.09-51.77,7.07l-30.1-1.28-2.38,20.69c-1.28,11.36-3.48,26.63-4.88,33.86ZM1885.17,526.28c-37.44,16.55-86.83,12.83-114.18-8.54-18.11-14.18-26.14-32.99-27.87-65.19-2.68-49.17,18-87.2,59.66-109.73,16.43-8.88,22.51-10.01,55.15-10.01,39.49,0,56.5,5.76,74.07,25.09,19.4,21.29,25.37,66.62,13.53,102.29-8.03,24.23-36.74,55.71-60.35,66.1ZM1450.55,527.1c-17.89,8.13-70.55,11.93-98.64,7.15-18.19-3.08-55.99-16.85-61.6-22.46-3.92-3.91,8.69-49.54,14.34-51.76,2.46-.98,15.95,3.42,29.99,9.74,48.18,21.67,98.12,18.96,107.33-5.87,5.65-15.31-4.69-27.01-33.4-37.77-13.02-4.85-30.84-11.55-39.64-14.86-57.97-21.89-69.27-85.43-22.51-126.51,17.27-15.16,38.79-23.51,69.67-27.05,42.72-4.89,106.52,12.41,100.87,27.35-1.32,3.5-3.34,11.44-4.47,17.64-1.14,6.21-3.59,14.26-5.39,17.91-2.93,5.87-4.4,6.02-13.24,1.43-15.99-8.31-57.79-14.78-76.86-11.96-22.48,3.39-33.92,11.02-33.92,22.65,0,12.9,12.98,23.81,36.59,30.81,28.49,8.46,58.96,22.72,69.27,32.46,19.47,18.4,24.97,58.31,11.7,84.94-8.76,17.64-29.63,36.87-50.09,46.16ZM2076.09,532.75c-24.82,5.34-45.5,5.57-62.33.64-30.47-8.88-36.12-26.48-27.72-86.11,3.34-23.66,7.52-48.49,9.28-55.22l3.19-12.23h-37.03l2.27-14.11c1.25-7.75,2.27-17.83,2.31-22.38.04-7.15,2.31-8.39,17.45-9.4l17.38-1.13,4.11-23.62c2.27-13.02,4.95-24.53,5.98-25.58,3.63-3.69,58.12-17.53,60.28-15.31,1.21,1.24.33,11.89-1.98,23.66-2.31,11.77-4.18,26.22-4.18,32.09,0,10.61.11,10.65,23.83,10.65h23.83v12.9c0,7.11-1.61,17.27-3.59,22.57-3.34,9.1-5.02,9.67-29.33,9.67-18.08,0-25.78,1.39-25.89,4.7-.07,2.6-2.35,22.5-5.06,44.2-6.75,54.25-4.73,58.5,27.35,57.78l23.72-.53-3.7,42.43-20.17,4.33ZM1811.35,481.21c9.2,9.44,14.15,11.47,27.94,11.47s19.1-2.18,30.84-13.02c8.1-7.52,15.88-19.26,18.33-27.72,8.95-30.66,2.75-67.6-12.36-73.54-10.67-4.18-34.8-2.45-45.58,3.24-19.03,10.12-26.88,26.14-28.71,58.76-1.61,28.67-1.39,29.61,9.53,40.82ZM819.39,549.26c19.8,9.22,28.86,9.18,46.79-.19,17.31-9.1,25.56-20.95,28.12-40.59,3.89-29.83-17.49-53.53-47.96-53.23-23.98.23-41.91,9.48-50.49,26.07-13.82,26.75-4.03,55.07,23.54,67.94ZM1589.33,485.05c13.9,5.72,32.67,4.25,49.02-3.87,20.2-10.01,32.63-34.16,32.38-62.71-.29-27.31-10.63-38.63-35.35-38.63-15,0-19.69,1.92-30.36,12.23-10.6,10.27-13.53,16.89-18.3,41.23-7.77,39.84-7.37,47.66,2.6,51.76ZM2406.21,689.24c-.07,16.67-1.36,21.63-5.61,21.63-4.47,0-5.5-6.28-5.5-34.12,0-33.22.22-34.08,8.25-32.92,5.54.79,11.26,7.07,17.42,19.07,5.06,9.82,9.97,17.83,11,17.83s5.94-8.01,11-17.83c6.23-12.15,11.84-18.25,17.56-19.07,8.29-1.2,8.4-.75,7.33,31.98-.84,26.03-2.2,33.18-6.38,33.18s-5.13-4.51-4.33-19.75c.55-10.87-.48-19.75-2.31-19.75s-7.52,7.82-12.61,17.34l-9.31,17.38-6.89-10.01-1.36-1.99c-10.01-14.48-14.48-20.99-16.5-20.28-1.65.56-1.69,5.94-1.72,15.69l-.04,1.62ZM1639.02,719.82c-1.1,10.98-6.45,16.25-11.4,11.17-1.39-1.39-2.53-17.23-2.53-35.14v-32.58l20.06-.53c16.79-.45,20.94.79,25.67,7.71,12.65,18.55,1.69,42.06-18.52,39.65-11.22-1.35-12.28-.56-13.27,9.71ZM2160.43,691.76c-1.72,15.76-6.56,22.42-12.14,16.67-1.39-1.39-2.53-12.3-2.53-24.15v-21.59l19.1-.15c10.52-.08,21.12,1.54,23.54,3.57,2.9,2.52,5.17,2.45,6.75-.19,3.48-5.79,22.33-4.82,27.39,1.39,6.34,7.86,3.56,41.68-3.45,41.68-3.67,0-5.1-2.93-4.29-8.88,2.27-16.48-2.53-27.46-11.44-26.15-6.64.94-8.43,4.18-9.94,18.09-1.21,11.25-3.59,16.93-7.04,16.93-3.7,0-5.32-4.93-5.5-16.93-.26-15.46-1.1-16.93-9.46-16.93s-9.39,1.92-11,16.63ZM1790.09,698.01c0,8.92-1.69,12.87-5.5,12.87-4.33,0-5.5-5.15-5.5-23.81v-23.81l19.1-.45c10.52-.23,21.08,1.24,23.5,3.31,2.93,2.52,5.21,2.45,6.78-.19,3.48-5.79,22.33-4.82,27.39,1.39,5.43,6.73,3.59,40.59-2.31,42.58-2.9.94-4.77-4.7-5.5-16.67-1.03-16.48-1.94-18.09-10.3-18.09s-9.39,1.92-11,16.63c-2.27,20.54-11,25.77-11,6.58s-3.23-25.09-12.83-25.09-12.83,6.32-12.83,24.75ZM2526.3,705c-11.11,8.01-22.04,7.37-33.55-1.92-11.59-9.37-12.54-23.1-2.31-33.59,9.35-9.59,29.74-9.97,37.95-.64,8.87,10.08,7.77,29.04-2.09,36.15ZM2127.43,703.35c-8.03,8.24-30.18,10.08-41.25,3.46-11.62-6.96-6.71-10.76,12.83-9.93,24.49,1.05,26.36-7.41,3.41-15.24-37.44-12.83-21.49-45.44,17.86-36.57,16.21,3.65,11.15,11.25-7.48,11.25-22.07,0-22.37,7.45-.55,14.86,23.61,8.05,28.53,18.47,15.18,32.16ZM1603.08,703.35c-9.9,10.16-24.09,9.48-35.02-1.69-8.98-9.25-11.26-19.11-6.16-26.9,4.18-6.47,17.82-12.79,27.54-12.79,19.1,0,27.94,26.71,13.64,41.38ZM1480.47,701.65c-4.77,7.49-8.8,9.18-21.38,8.92-20.24-.38-24.68-2.48-24.68-11.7,0-5.87,1.5-6.92,6.42-4.7,10.27,4.63,27.57,3.95,29.3-1.17.84-2.6-1.47-5.68-5.17-6.85-3.7-1.2-12.17-4.59-18.85-7.6-10.56-4.7-11.99-6.96-11-17.3,1.36-14.14,14.3-20.28,34.58-16.36,18.11,3.46,13.75,11.44-6.23,11.44-22.29,0-21.19,8.39,2.13,16.33,20.42,6.96,24.24,14.37,14.89,29ZM1759.21,701.5c-9.72,9.97-27.83,12.41-39.71,5.3-11.37-6.81-6.89-10.16,12.83-9.63,14.81.41,19.25-.75,19.25-5.08,0-3.05-3.3-6.13-7.33-6.77-27.65-4.55-39.67-22.23-23.98-35.29,12.61-10.5,40.48-8.5,40.48,2.86,0,3.99-3.89,4.63-16.87,2.78-15-2.11-16.72-1.62-15.58,4.48.77,4.18,7.37,8.92,16.9,12.15,21.38,7.34,26,16.93,14.01,29.19ZM858.73,519.02c-9.46,9.71-23.65,9.59-33.22-.23-10.52-10.8-8.21-26.48,4.88-32.88,24.27-11.89,46.68,14.3,28.34,33.1ZM1511.41,691.76c-1.03,9.14-3.89,17.34-6.42,18.21-3.34,1.13-4.77-5.72-5.24-25.13-.37-14.63-.77-30.43-.92-35.06-.15-5.15,2.24-8.88,6.16-9.67,5.1-1.02,6.42,1.35,6.42,11.44,0,12.04.59,12.6,11.92,11.44,17.27-1.81,21.12,2.63,22.07,25.47.7,16.78-.29,20.54-5.57,21.63-5.46,1.13-6.42-1.58-6.42-17.98,0-18.88-.26-19.34-10.08-18.17-8.98,1.09-10.3,3.05-11.92,17.83ZM1918.42,689.99v19l-18,.79c-19.32.83-27.57-4.59-25.34-16.59.88-4.7,5.61-7.34,15.58-8.65,20.02-2.63,21.85-11.29,2.38-11.29-8.21,0-14.96-1.5-14.96-3.35,0-8.24,28.6-10.95,35.93-3.42,2.42,2.48,4.4,13.05,4.4,23.51ZM2343.58,705.45c-11.11,13.73-43.82-1.77-43.82-20.73,0-10.95,12.91-22.76,24.86-22.76,13.2,0,26.47,9.67,26.47,19.26,0,6.13-1.58,7.07-8.25,4.97-4.55-1.47-8.8-4.1-9.46-5.91-1.69-4.51-18-4.14-20.79.49-1.25,2.07-.44,3.76,1.76,3.76s3.59,2.97,2.97,6.58c-.84,5.3,2.05,6.81,14.78,7.75,13.31.98,15.14,2.03,11.48,6.58ZM2629.7,705.34c-7,8.61-24.75,6.73-34.94-3.69-10.12-10.42-10.78-14.07-4.77-25.84,5.72-11.1,10.23-13.73,23.94-13.77,12.17-.08,24.49,9.03,22.11,16.36-2.16,6.66-14.37,7.52-17.82,1.24-4.77-8.77-16.87-3.61-16.87,7.15,0,11.36,4.11,14.11,20.2,13.47,10.71-.41,11.95.34,8.14,5.08ZM2009.21,704.29c-2.09,6.47-14.74,7.86-20.24,2.22-2.49-2.56-4.55-10.76-4.55-18.21s-1.98-15.57-4.4-18.06c-3.26-3.35-3.34-5.61-.29-8.73,2.27-2.33,3.26-6.55,2.16-9.4-1.25-3.39.73-5.19,5.79-5.19s7.74,2.37,7.74,7.52,2.46,7.52,7.33,7.52c4.03,0,7.33,1.84,7.33,4.1s-3.3,5-7.33,6.09c-10.89,2.93-10.6,27.42.29,27.42,4.47,0,7.04,1.96,6.16,4.7ZM797.39,359.89l4.36,9.78,2.05-9.03c1.65-7.41,5.94-10.01,23.91-14.52,13.57-3.39,19.07-6.06,14.52-7.07l-7.33-1.62,7.33-2.97c6.67-2.75,6.53-3.05-1.83-3.54-8.43-.49-8.58-.79-1.83-3.76,5.94-2.63,4.91-3.24-5.5-3.27-7.04-.04-19.43,1.35-27.5,3.05-14.3,3.05-14.37,3.12-2.75,3.57,8.18.26,11.92,2.26,11.92,6.28,0,3.46,1.72,4.78,4.22,3.16,2.71-1.69,3.26-1.02,1.47,1.92-1.5,2.56-4.91,3.76-7.59,2.71-2.64-1.05-5.79.71-7,3.91-1.17,3.16-4.55,4.85-7.48,3.69-4.44-1.73-4.58-.49-.95,7.71ZM1948.45,694.92c-.77,10.83-2.82,15.95-6.42,15.95-4.03,0-5.28-5.57-5.28-23.85v-23.85l16.5-.26c18.77-.3,21.16,3.87,6.42,11.1-8.29,4.06-10.27,7.75-11.22,20.92ZM2559.41,694.54c-.62,7.6-3.19,14.56-5.72,15.42-3.34,1.13-4.58-5-4.58-22.72v-24.26h14.67c16.87,0,18.41,3.12,5.72,11.66-6.27,4.21-9.28,10.12-10.08,19.9ZM871.86,328.93c4.95,7.79,6.71,8.13,23.61,4.7,14.08-2.86,18.26-5.3,18.26-10.72,0-7.67-8.8-8.88-33.7-4.66-13.05,2.22-13.35,2.63-8.18,10.68ZM2284.33,673.52c-.73,24.34-2.49,35.36-5.79,36.49-3.67,1.24-4.47-6.13-3.67-33.25.73-24.34,2.49-35.36,5.79-36.49,3.67-1.24,4.47,6.13,3.67,33.25ZM685.11,379.19c1.72,6.58,3.08,7.52,5.39,3.76,2.57-4.14,3.12-4.1,3.15.15.07,3.91,1.28,4.14,4.99.98,2.71-2.29,6.27-2.93,7.92-1.39,1.65,1.54,1.8.64.33-1.99-1.47-2.6-4.07-3.87-5.79-2.78-3.85,2.45-8.8-19.04-5.57-24.34,2.16-3.61-5.98-15.12-10.71-15.12-2.79,0-2.57,29.72.29,40.74ZM1640.89,694.21c9.39,10.95,22.95,3.16,19.47-11.14-1.76-7.11-4.8-9.82-11.07-9.82-10.08,0-15.25,12.94-8.4,20.95ZM2255.03,685.18c-1.54,32.43-9.24,33.44-10.85,1.43-1.1-21.71-.44-24.64,5.35-24.64s6.45,2.97,5.5,23.21ZM1575.69,692.25c1.32,2.18,6.78,3.5,12.14,2.86,7.59-.9,9.72-3.2,9.72-10.57.04-12.64-18.19-15.99-21.89-4.03-1.32,4.25-1.28,9.52.04,11.74ZM759.66,186.05c-2.16-1.39-6.6-.23-9.86,2.52-4.99,4.25-5.65,4.21-4.22-.26.95-2.93,9.86-10.04,19.87-15.84l18.15-10.5.11,10.65c.11,8.69-1.36,10.61-7.88,10.19-4.44-.26-7.15-1.99-6.05-3.8,1.06-1.81-.33-2.45-3.12-1.39-2.79,1.02-4.66,3.91-4.11,6.4.59,2.48-.73,3.39-2.9,2.03ZM1889.09,697.7c2.49,3.12,5.79,5.64,7.33,5.64s4.84-2.52,7.33-5.64c3.89-4.82,2.82-5.64-7.33-5.64s-11.22.83-7.33,5.64ZM2664.79,706.77c-1.36,2.26-3.89,4.1-5.68,4.1-5.65,0-8.32-8.01-4.07-12.38,5.06-5.19,13.53,2.03,9.75,8.28ZM2254.48,648.65c-2.75,7.45-8.32,7.45-11.11,0-1.25-3.31.22-6.7,3.45-7.98,7.19-2.82,10.45.56,7.66,7.98Z"/>
  <path class="st3" d="M759.66,186.05c2.16,1.35,3.48.45,2.9-2.03-.55-2.48,1.32-5.38,4.11-6.4,2.79-1.05,4.18-.41,3.12,1.39-1.1,1.81,1.61,3.54,6.05,3.8,6.53.41,7.99-1.5,7.88-10.19l-.11-10.35c10.38-5.72,21.38-11.06,32.96-16.06,11.84-5.12,79.68-14.14,91.67-12.23,25.01,4.03,29.08,5.49,24.05,8.69-10.3,6.55-8.84,35.32,3.52,70.35,6.45,18.28,14.15,37.92,17.05,43.6,2.9,5.68,3.96,10.42,2.35,10.53-1.65.08,1.98,2.48,8.03,5.3,6.05,2.86,9.35,5.42,7.33,5.76-5.9.9-20.42,2.78-44.99,5.87,16.61-2.48,28.78-4.93,30.14-6.21,4.69-4.59-2.24-4.29-58.48,2.22-26.22,3.05-50.97,5.45-55,5.34l-7.33-.19,7.33-3.24c7-3.08,7-3.24.29-3.5-3.85-.15-5.98-1.32-4.73-2.63,3.34-3.39-6.12-20.58-17.05-31.04-8.87-8.54-9.09-9.63-4.22-21.63,2.86-7,3.59-12.68,1.69-12.68s-3.48-2.52-3.48-5.57c0-7.03-15.4-11.17-28.49-7.6-5.5,1.47-15.36,2.93-21.93,3.24-6.56.3-11.92,1.81-11.92,3.35s-3.48,2.82-7.77,2.82c-5.9,0-7.3-1.77-5.83-7.45,1.43-5.72.81-6.73-3.48-4.48,4.29-3.61,8.84-7.15,13.57-10.61-1.8,1.69-2.97,3.08-3.3,4.06-1.43,4.48-.77,4.51,4.22.26,3.26-2.75,7.7-3.91,9.86-2.52ZM964.22,563.14c18.99-7.82,36.23-15.84,37.51-17.72.99-1.5,6.78-5.64,12.83-9.18,12.94-7.56,8.07-6.06-22.29,6.88-25.23,10.8-63.87,17.04-63.87,10.38,0-2.29-2.9-3.2-6.42-2.03-4.95,1.62-5.28,1.28-1.36-1.58,2.79-2.03,4.03-5.42,2.79-7.45-6.12-10.16,27.02-6.66,41.65,4.4,4.66,3.5,4.8,3.24.84-1.96-6.93-9.14-1.54-18.4,15.29-26.22,22.07-10.31,11.99-8.61-22.7,3.76-5.83,2.11-11,3.8-15.55,5.15,3.01-1.02,6.31-2.18,9.9-3.5,13.79-5,30.84-10.91,37.88-13.13,7.04-2.22,16.94-6.24,22-8.99,5.06-2.71,19.87-10.16,33-16.48,13.13-6.36,28.78-14.97,34.83-19.07,6.05-4.14,13.46-8.73,16.5-10.19,8.54-4.18,45.03-33.25,52.8-42.13,7.37-8.35,16.87-10.65,16.87-4.06,0,8.8-75.76,86.41-84.37,86.41-1.39,0-7,4.21-12.47,9.4-5.43,5.19-11.33,9.4-13.13,9.4-3.7,0-30.21,15.27-33.04,19.04-4.33,5.72-28.86,17.19-59.51,28.85ZM971.3,441.33c-13.82,6.62-33.07,14.75-43.93,18.55,4.91-2.07,8.36-4.33,8.36-5.72,0-1.92,2.05-2.75,4.58-1.81,4.88,1.77,26.55-8.01,23.83-10.76-.88-.9-8.51.83-16.9,3.87-8.43,3.05-18.04,4.48-21.34,3.16-3.74-1.47-5.13-.87-3.67,1.62,3.37,5.53-11.95,8.99-20.09,4.48-7.44-4.06-8.69-9.25-3.08-12.83,6.78-4.29,3.78-13.17-4.58-13.47-4.55-.15,6.6-4.51,24.75-9.74,54.34-15.57,80.05-25.35,81.92-31.26,1.32-4.21.22-3.99-4.58.94-3.48,3.57-7.19,6.51-8.18,6.51s-27.68,6.96-59.33,15.46c-12.58,3.35-25.04,6.62-35.86,9.37,20.9-5.38,49.54-13.09,81.04-21.86,8.07-2.26,18.19-8.28,22.51-13.43q7.85-9.33,10.34-1.28c1.39,4.44,4.03,7.11,5.9,5.94,1.87-1.2,3.41-.11,3.41,2.45s1.1,3.5,2.42,2.14c3.3-3.39,12.65,5,10.19,9.1-1.1,1.81.55,2.29,3.7,1.05,10.3-4.06,5.9,2.03-6.05,8.35-6.45,3.42-14.01,8.58-16.76,11.4-2.79,2.82-6.64,5.15-8.62,5.15s-15.44,5.68-29.99,12.6ZM962.87,328.89c-9.39,1.47-19.18,3.46-21.74,4.48-5.32,2.11-7.11-.38-10.34-14.18-2.16-9.29-1.36-9.97,14.67-12.23,33.95-4.78,45.25-1.32,38.43,11.77-2.68,5.12-9.42,8.39-21.01,10.16ZM897.71,355.37c-1.94.34-4.03.71-6.16,1.17-11.81,2.33-12.8,3.5-10.45,12,2.46,8.95,2.6,8.99,2.93.94.29-6.77,2.53-8.46,11.07-8.46,5.87,0,13.02-.9,15.84-2.03,3.15-1.24,6.82,1.77,9.46,7.71.26.53.48,1.02.66,1.5,2.35,5.19,3.56,7.94,2.79,9.78-.95,2.18-4.73,3.08-12.87,5.42-17.38,4.93-27.68,5.04-24.79.23,1.25-2.07-.07-2.78-2.93-1.66-2.79,1.09-8.36-2.14-13.13-7.56,6.42,6.32,11.7,2.97,9.68-7.75-1.39-7.6.22-8.8,14.85-10.87,1.06-.15,2.05-.26,3.04-.41ZM797.39,359.89c-3.63-8.2-3.48-9.44.95-7.71,2.93,1.17,6.31-.53,7.48-3.69,1.21-3.2,4.36-4.97,7-3.91,2.68,1.05,6.09-.15,7.59-2.71,1.8-2.93,1.25-3.61-1.47-1.92-2.49,1.62-4.22.3-4.22-3.16,0-4.03-3.74-6.02-11.92-6.28-11.62-.45-11.55-.53,2.75-3.57,8.07-1.69,20.46-3.08,27.5-3.05,10.41.04,11.44.64,5.5,3.27-6.75,2.97-6.6,3.27,1.83,3.76,8.36.49,8.51.79,1.83,3.54l-7.33,2.97,7.33,1.62c4.55,1.02-.95,3.69-14.52,7.07-17.97,4.51-22.26,7.11-23.91,14.52l-2.05,9.03-4.36-9.78ZM975.55,342.88c-1.91,1.24-3.19,4.14-3.23,7.79-.07,12.49-4.4,17.46-17.53,20.16-11.18,2.29-11.73,1.88-11.73-9.37,0-6.43-1.32-11.74-2.93-11.74s-2.24,5.94-1.43,13.17c.81,7.22.62,13.17-.44,13.17-.59,0-1.17-.04-1.76-.15,2.02-1.24,3.01-6.32,1.91-14.9-1.94-14.9-1.87-15.05,10.05-15.05,6.6,0,17.16-1.05,23.47-2.33l3.63-.75ZM871.86,328.93c-5.17-8.05-4.88-8.46,8.18-10.68,24.9-4.21,33.7-3.01,33.7,4.66,0,5.42-4.18,7.86-18.26,10.72-16.9,3.42-18.66,3.08-23.61-4.7ZM685.11,379.19c-2.86-11.02-3.08-40.74-.29-40.74,4.73,0,12.87,11.51,10.71,15.12-3.23,5.3,1.72,26.78,5.57,24.34,1.72-1.09,4.33.19,5.79,2.78,1.47,2.63,1.32,3.54-.33,1.99-1.65-1.54-5.21-.9-7.92,1.39-3.7,3.16-4.91,2.93-4.99-.98-.04-4.25-.59-4.29-3.15-.15-2.31,3.76-3.67,2.82-5.39-3.76ZM913.99,508.18c-.37,12.19.48,19.22,4.8,22.04-3.56-1.43-5.06-4.51-5.06-9.33,0-5.19-2.71-9.25-6.89-10.38-4.66-1.24-7.33-6.09-8.36-15.05-2.2-19.45.84-24.38,6.49-10.57,2.71,6.66,6.53,11.06,8.47,9.86.07-.04.15-.11.22-.15.33,4.48.44,9.22.33,13.58ZM2636.34,675.92c.51,1.62.77,3.35.77,5.12,0,6.21-2.68,7.26-18.33,7.26-8.87,0-14.74,1.02-17.16,2.78-.18-1.24-.26-2.67-.26-4.29,0-10.76,12.1-15.91,16.87-7.15,3.45,6.28,15.66,5.42,17.82-1.24.26-.83.37-1.66.29-2.48ZM2346.74,687.13c-2.64.98-6.78,1.5-13.05,1.92-9.35.6-14.89,2.22-16.46,3.99-.04-.6,0-1.2.11-1.92.62-3.61-.73-6.58-2.97-6.58s-3.01-1.69-1.76-3.76c2.79-4.63,19.1-5,20.79-.49.66,1.81,4.91,4.44,9.46,5.91,1.58.49,2.86.83,3.89.94ZM813.67,413.65c14.3-1.28,87.53-20.28,89.47-23.36,1.21-1.92,4.51-3.08,7.33-2.52,2.2.41,6.49,0,11.66-.9-43.08,12.15-100.21,26.82-107.99,26.82-.15,0-.33,0-.48-.04ZM879.56,344.2c.26-.26.48-.53.66-.83,1.28-1.99,8.14-3.57,15.22-3.5,4.84.04,8.84-.15,12.1-.64-4.73,1.32-11.33,2.52-20.57,4.03-3.04.49-5.43.83-7.41.94ZM932.87,374.94c-4.07-1.66-7.3-4.74-6.09-6.77,1.14-1.88.37-3.39-1.72-3.39s-2.82-2.52-1.65-5.64c.22-.6.33-1.17.29-1.66,1.36,1.73,2.38,4.1,3.56,7.3,1.91,5.12,3.85,8.43,5.61,10.16ZM860.64,327.42c4.29-2.03,9.09-.04,9.09,7.03,0,.98.11,1.92.26,2.82-.11-.3-.22-.6-.33-.94-2.35-6.32-5.9-9.25-9.02-8.92ZM974.49,365.49c.07-.45-.11-.71-.55-.71-1.36,0-.84-2.11,1.1-4.7,2.24-2.93,3.89-5.83,4.91-8.39l-.73,2.29c-1.28,3.91-3.01,8.13-4.73,11.51ZM970.93,371.29c-.77.87-6.42,2.9-15.18,5.68,1.25-.71,1.98-1.39,1.98-1.92,0-1.96,2.05-2.75,4.62-1.73,2.53.98,6.71-.53,9.28-3.39.48-.49.92-.98,1.25-1.47-.7,1.2-1.36,2.18-1.94,2.82ZM911.02,477.94l-4.58-11.29,12.03-3.72c-11.22,4.1-11,5.68-7.81,13.99.15.34.26.68.37,1.02ZM980.94,348.72c.81-3.57.07-6.06-2.42-6.43l4.8-1.02-2.38,7.45ZM698.05,235.45c-.11.15-.22.34-.33.49-5.72,8.54-11.04,12.23-17.75,12.23s-14.01,3.95-19.14,9.59c5.1-5.64,12.14-9.59,18.85-9.59,5.76,0,10.82-3.35,18.37-12.72ZM867.31,371.1c-6.71-7.75-9.61-7.9-28.75-5.76-2.38.26-4.77.49-7,.68,2.35-.23,4.8-.49,7.33-.79,20.28-2.45,22.62-1.99,28.42,5.87ZM920.74,317.34c-.81-4.55-3.37-5.19-11.11-5.19,8.32-.04,10.82.38,11.11,5.19ZM2630.29,667.35c-4.29-3.16-10.34-5.34-16.35-5.3,6.49-.04,12.21,1.96,16.35,5.3ZM2607.88,699.21c3.45.79,8.73,1.24,13.68,1.05-6.2.26-10.6,0-13.68-1.05ZM832.04,296.24c-23.47,3.31-41.25,6.06-42.2,6.7,1.06-.71,18.66-3.42,42.2-6.7ZM2351.1,681.04c-.11-5.12-3.96-10.27-9.53-13.88,5.61,3.61,9.53,8.69,9.53,13.62v.26ZM2319.57,696.61c2.53.98,6.67,1.84,12.54,2.26-6.42-.45-10.34-1.09-12.54-2.26ZM807.91,408.42c-2.02-3.42-4.07-8.54-6.2-15.54,1.87,6.17,4.14,11.74,6.2,15.54Z"/>
  <path class="st2" d="M685.99,525.56c-.88.3-1.72.6-2.49.87-10.85,3.57-15.36,7.03-14.59,11.1.84,4.51,8.51,6.55,21.27,6.06-24.9,2.37-47.15,2.11-49.46-1.77-1.39-2.29.66-3.99,4.91-3.99,4.03,0,8.36-1.69,9.61-3.76s5.87-3.8,10.3-3.8c4.4-.04,11.29-1.62,20.46-4.7ZM729.92,537.56c1.21-.26,2.42-.56,3.67-.87l30.69-7.26-30.69,7.3c-1.21.26-2.42.56-3.67.83ZM733.73,496.86c-.29-.45-.59-.9-.92-1.39-1.32-1.92-2.57-3.76-3.81-5.64,1.21,1.84,2.49,3.69,3.74,5.57.37.53.7.98.99,1.47Z"/>
  <path class="st9" d="M928.4,137.71c8.98,1.43,17.16,2.52,20.17,2.63,4.03.11,9.53,2.45,12.21,5.15,2.68,2.71,6.27,4.03,7.99,2.97,3.89-2.48,21.96,5.76,21.96,10.01,0,1.73,1.65,3.16,3.7,3.16s8.21,4.1,13.75,9.07c5.54,5,14.15,12.49,19.21,16.63,5.06,4.14,7.92,8.8,6.42,10.35-1.54,1.58-7.15-1.24-12.54-6.24-5.35-5-8.54-7-7.08-4.4,1.47,2.63.73,4.7-1.69,4.7-7.7,0-2.09,37.88,8.07,54.55,14.34,23.47,15.47,28.67,5.79,26.3-6.42-1.54-21.49-.23-55.26,5-.33-.98-3.34-2.97-7.88-5.12-6.05-2.82-9.68-5.23-8.03-5.3,1.61-.11.55-4.85-2.35-10.53-2.9-5.68-10.6-25.32-17.05-43.6-12.36-35.02-13.82-63.8-3.52-70.35,3.12-1.96,2.75-3.27-3.89-4.97ZM1031.18,409.58c8.4-5.23,10.41-9.25,1.54-5.76-3.15,1.24-4.8.75-3.7-1.05,2.46-4.1-6.89-12.49-10.19-9.1-1.32,1.35-2.42.38-2.42-2.14s-1.54-3.65-3.41-2.45c-1.87,1.17-4.51-1.5-5.9-5.94-2.24-7.22-2.46-7.94-8.18-1.28,2.13-3.42,3.67-7.03,4.14-10.31.4-2.67,1.69-6.58,2.9-8.65,1.17-2.07,4.22-13.09,6.78-24.45,2.53-11.36,5.9-22.38,7.52-24.45,1.58-2.07,3.01-5.04,3.15-6.58.18-1.54.44-3.24.59-3.76.18-.53,1.03-5.08,1.94-10.12,2.42-13.51,5.24-14.48,11.95-4.18,3.3,5.08,11.37,15.8,17.93,23.85l11.92,14.67.48-12.6c.4-9.86,1.06-8.5,3.08,6.24,1.43,10.35,1.36,23.44-.22,29.12-3.23,11.85,1.06,16.63,7.66,8.5,2.46-3.05,5.83-4.7,7.48-3.65,1.65,1.05,4.03.19,5.32-1.92,1.28-2.11,5.46-3.84,9.35-3.84,6.09,0,6.49,1.2,3.04,8.99-2.2,4.93-7.96,10.83-12.76,13.09-4.8,2.26-8.76,5.83-8.76,7.94s-2.49,3.84-5.54,3.84-8.36,3.39-11.81,7.52c-3.45,4.14-8.18,7.52-10.52,7.52-2.71,0-13.13,5.12-23.36,10.95ZM974.34,397.81l-.11.04c-31.5,8.77-60.13,16.48-81.04,21.86-16.35,4.18-29,7.22-32.63,7.79-.84.11-1.76.3-2.75.49.99-.19,1.91-.38,2.75-.49,6.05-.94,34.1-8.09,62.33-15.84,20.53-5.64,40.33-10.95,51.44-13.84ZM1009.73,423.88c-2.68,2.67-6.45,4.85-8.43,4.85,1.98,0,5.83-2.33,8.62-5.15,2.75-2.82,10.3-7.98,16.76-11.4.22-.11.4-.19.62-.3-7.81,4.59-14.85,9.29-17.56,12ZM857.12,138.16l3.45-.49c10.89-1.58,19.73-2.63,27.46-3.08-9.2.79-20.24,2.07-30.91,3.57ZM750.27,183.01c-.51.41-.99.83-1.39,1.24-4.73,3.46-9.28,7-13.57,10.61-.07.08-.18.11-.29.19,4.88-4.18,9.97-8.2,15.25-12.04ZM846.74,139.74c-5.35.83-10.41,1.69-14.89,2.56,4.25-.87,9.02-1.66,14.89-2.56ZM926.97,283.9l-1.65.23.26-.04,1.39-.19Z"/>
  <path class="st13" d="M1013.73,272.16c6.05-.38,10.08-.19,12.65.41,9.68,2.37,8.54-2.82-5.79-26.3-10.16-16.67-15.77-54.55-8.07-54.55,2.42,0,3.15-2.07,1.69-4.7-1.47-2.6,1.72-.6,7.08,4.4,5.39,5,11,7.82,12.54,6.24.29-.3.4-.71.4-1.24,7,8.2,13.24,16.59,17.2,23.51,18.44,32.31,28.82,98.18,20.24,128.81-2.05,7.37-1.83,12.38-.07,13.99-1.8-1.39-2.24-5.72-.51-12.11,1.58-5.68,1.65-18.77.22-29.12-2.02-14.75-2.68-16.1-3.08-6.24l-.48,12.6-11.92-14.67c-6.56-8.05-14.63-18.77-17.93-23.85-4.51-6.92-7.26-8.73-9.31-5.12.18-.64.37-1.2.51-1.77,2.42-7.79.33-11.1-15.36-10.31ZM1024.8,299.74c-.4,2.14-.7,3.61-.81,3.91-.15.53-.4,2.22-.59,3.76-.15,1.54-1.58,4.51-3.15,6.58-1.5,1.92-4.55,11.7-7,22.23,2.42-10.53,5.21-20.31,6.34-22.23,1.21-2.07,2.42-5.04,2.71-6.58.29-1.54.84-3.24,1.25-3.76.29-.34.77-1.92,1.25-3.91ZM1020.62,181.61c-4.25-3.65-8.95-7.75-12.43-10.91-5.54-4.97-11.73-9.07-13.75-9.07,4.33,0,14.96,8.61,26.18,19.98Z"/>
  <path class="st0" d="M819.13,549.11c-27.35-12.87-37.07-41.12-23.28-67.79,5.06-9.74,13.31-16.97,24.13-21.29-3.37,1.77-4.88,3.87-3.63,5.94.99,1.69-2.24,6.96-7.22,11.77-9.28,8.92-13.49,33.25-4.84,27.72,2.35-1.47,3.3-1.05,2.09.9-4.36,7.26,9.02,26.56,24.09,34.65l15.44,8.31-12.83-2.03c-17.34-2.75-30.25-13.17-35.53-28.63-4.03-11.77-4.4-12.04-4.58-3.05-.26,10.87,11.44,25.51,26.18,33.48ZM1640.89,694.21c-6.86-8.01-1.69-20.95,8.4-20.95,6.27,0,9.31,2.71,11.07,9.82,3.48,14.3-10.08,22.08-19.47,11.14ZM1575.69,692.25c-1.32-2.22-1.36-7.49-.04-11.74,3.7-11.96,21.93-8.61,21.89,4.03,0,7.37-2.13,9.67-9.72,10.57-5.35.64-10.82-.68-12.14-2.86ZM638.73,579.21c-7.22,4.82-25.67,4.82-25.67,0,0-2.07,7-3.72,15.58-3.69,11.4.04,14.12,1.02,10.08,3.69ZM793.24,497.69c.4,7.11.7,6.96,2.16-1.24.92-5.19,3.37-11.51,5.46-14.11,2.53-3.16,2.53-4.7.04-4.7-4.69,0-8.32,9.44-7.66,20.05ZM894.3,508.48c2.38-18.17-4.88-34.31-17.82-43.98,13.02,9.56,20.24,25.62,17.82,43.98ZM843.99,556.11c6.78-.23,13.57-2.52,22.18-7.03-8.76,4.55-15.36,6.92-22.18,7.03Z"/>
  <path class="st4" d="M807.91,408.42c1.72,3.31,3.34,5.3,4.4,5.3.37,0,.84-.04,1.36-.08.15.04.33.04.48.04,7.77,0,64.9-14.67,107.99-26.82,1.03-.19,2.09-.38,3.19-.6-9.72,2.75-20.42,5.68-31.57,8.58-40.22,10.5-73.78,19.75-74.58,20.58s12.32.87,29.15.11c16.83-.79,28.34-.45,25.59.71-3.78,1.58-3.92,2.78-.59,4.93,2.42,1.54,25.3-2.97,50.82-9.97,20.68-5.68,41.36-11.21,51.48-13.77-.44.15-.88.26-1.28.38-11.11,2.9-30.91,8.2-51.44,13.84-28.23,7.75-56.28,14.9-62.33,15.84-.26.04-.51.08-.77.11h-.04l-.04.04c-.59.08-1.21.19-1.83.3h-.04l-.04.04c-.84.15-1.76.3-2.68.49-6.2,1.24-14.19,3.12-20.24,4.82-8.07,2.22-21.01,5.3-28.75,6.85-13.82,2.71-14.15,2.52-20.53-12.79-3.56-8.54-12.69-33.33-20.28-55.04-7.59-21.71-15.25-42.89-17.01-47.02-1.8-4.14-5.46-14.3-8.21-22.57-2.71-8.28-6.45-15.05-8.25-15.01-1.83,0-14.01-1.77-27.13-3.95-23.32-3.91-23.87-4.25-25.01-16.29l-1.17-12.26,26.84,2.45c33.77,3.05,49.32,7.86,52.03,16.06,1.14,3.54,3.56,8.95,5.32,12.08,8.47,14.97,11.66,23.1,11.66,29.83,0,4.03,1.65,8.39,3.67,9.67s3.67,6.36,3.67,11.29,1.65,10.01,3.67,11.29c2.02,1.28,3.67,6.36,3.67,11.29s1.39,9.86,3.12,10.95,6.01,11.36,9.53,22.8c2.13,7,4.18,12.11,6.2,15.54ZM819.39,549.26l-.26-.15c-14.74-7.98-26.44-22.61-26.18-33.48.18-8.99.55-8.73,4.58,3.05,5.28,15.46,18.19,25.88,35.53,28.63l12.83,2.03-15.44-8.31c-15.07-8.09-28.45-27.39-24.09-34.65,1.21-1.96.26-2.37-2.09-.9-8.65,5.53-4.44-18.81,4.84-27.72,4.99-4.82,8.21-10.08,7.22-11.77-1.25-2.07.26-4.18,3.63-5.94,4-1.62,8.4-2.82,13.09-3.65-1.5.38-1.91.75-.88,1.17,2.53,1.05,3.67,3.46,2.53,5.38-1.14,1.88-.62,3.42,1.17,3.42s3.3,2.52,3.3,5.64-2.31,5.64-5.13,5.64-4.11,1.62-2.93,3.61c1.21,1.96,4.47,2.67,7.26,1.58,1.65-.64,4.18-.49,6.97.23-4.66-.49-9.75.3-14.96,2.86-12.76,6.21-15.29,21.25-5.68,32.01-4.99-4.44-8.4-9.63-7.26-13.02.84-2.6-.22-4.7-2.42-4.7-7.04,0-4.22,11.36,5.32,21.14,6.71,6.88,12.54,9.25,21.08,8.58,16.06-1.28,29.3,3.57,26.91,9.93-4.18,11.17,14.37-1.09,20.64-13.62,1.61-3.27,2.9-6.58,3.89-9.86-3.67,15.05-11.84,24.9-26.69,32.69-8.76,4.55-15.36,6.92-22.18,7.03-7.15.15-14.45-2.14-24.6-6.85ZM945.78,836.14c-11.88,2.78-145.53,2.18-158.55-.71-20.09-4.48-3.96-7.37,44.15-7.94,26.14-.34,49.17-.3,51.19.08,2.02.38,17.93.34,35.35,0,29.85-.64,45.98,4.33,27.87,8.58ZM793.24,497.69c-.66-10.61,2.97-20.05,7.66-20.05,2.49,0,2.49,1.54-.04,4.7-2.09,2.6-4.55,8.92-5.46,14.11-1.47,8.2-1.76,8.35-2.16,1.24ZM1024.8,299.74c-.48,1.99-.95,3.57-1.25,3.91-.4.53-.95,2.22-1.25,3.76-.04.26-.15.6-.22.94-1.32-.08-1.14-2.14.4-4.7.99-1.58,1.94-3.72,2.64-5.68-.11.64-.22,1.2-.33,1.77ZM864.75,509.05c1.76-6.32.15-12.6-3.67-17.42.88.83,1.61,1.69,2.16,2.56,2.9,4.4,3.12,9.78,1.5,14.86ZM858.73,519.02l.59-.6c-4.29,4.78-10.34,8.13-16.9,8.13-1.43,0-3.01-.3-4.66-.79,7.33,1.54,15.07-.68,20.97-6.73ZM837.17,455.82c2.93-.34,5.98-.53,9.17-.56,6.75-.08,13.09,1.05,18.81,3.16-5.68-2.07-11.99-3.16-18.81-3.05-3.63.04-6.75.23-9.17.45ZM969.47,372.15c-2.46,1.2-7.59,3.05-14.67,5.3.33-.15.66-.34.95-.49,6.56-2.07,11.4-3.76,13.71-4.82ZM974.49,365.49c1.72-3.39,3.45-7.6,4.73-11.51-1.28,3.95-3.04,8.16-4.73,11.51ZM972.95,368.43c-.55.9-1.06,1.69-1.54,2.29.44-.6.95-1.35,1.47-2.26l.07-.04Z"/>
  <path class="st5" d="M1224.31,33.73c-3.08,0-8.4,1.09-11.81,2.41-5.46,2.18-5.57,1.5-1.25-5.64,5.83-9.56,8.07-9.93,14.15-2.41,3.7,4.59,3.52,5.64-1.1,5.64ZM1142.39,16.81c1.28,3.42,0,5.64-3.26,5.64-2.97,0-5.39-2.52-5.39-5.64s1.47-5.64,3.26-5.64,4.25,2.52,5.39,5.64ZM1140.08,104.57c2.71,1.73,3.08,4.7.99,8.16-2.75,4.55-3.67,4.36-5.76-1.2-2.97-7.94-1.1-10.68,4.77-6.96Z"/>
  <path class="st7" d="M2623.14,398.37c-1.91,5.83-5.1,4.7-14.92-5.27-7.15-7.22-8.65-12.41-8.32-28.48.62-27.35,3.74-29.94,35.86-29.94h27.1l-4.69,31.98,12.39-11.81c6.82-6.47,17.67-14.52,24.13-17.87,12.36-6.36,39.97-8.28,42.06-2.9.66,1.73,9.46,2.14,19.54.94l18.33-2.22,3.67-23.32c2.02-12.87,5.32-24.83,7.33-26.67,4.47-4.03,39.2-12.08,52.07-12.08,8.54,0,9.17,1.02,7,12.04-1.28,6.62-3.37,20.92-4.62,31.79l-2.24,19.79,28.82,1.13,28.86,1.09-1.21,16.89c-1.98,27.99-3.85,29.49-33.7,27.42-23.06-1.62-26.91-.9-33.26,6.09-8.98,9.89-14.92,9.97-23.39.38-7.92-8.95-13.97-9.56-20.17-1.88-5.76,7.11-18.33,7.37-18.33.41,0-2.97-5.5-6.28-12.83-7.67-11.77-2.29-12.83-3.57-12.83-15.69,0-7.86-1.5-12.3-3.67-10.91-2.02,1.28-3.67,7.26-3.67,13.24,0,7.52-2.57,12.34-8.25,15.39-4.55,2.48-9.09,5.79-10.16,7.45-1.06,1.62-21.63,3.8-45.76,4.82-26.33,1.09-44.33,3.42-45.14,5.87ZM2301.16,364.89q-19.47,18.88-41.95,17.87c-12.32-.6-24.27-2.22-26.51-3.61-2.24-1.43-5.39-1.77-7-.75-1.61,1.05-2.93.3-2.93-1.62s-6.31-3.35-14.04-3.12c-15.18.41-44.37-11.21-45.03-17.91-1.03-10.57.26-21.78,9.61-82.35l2.2-14.26,30.03,1.09c3.19.11,6.05.15,8.62.23,9.39.15,14.96.26,17.89,3.16,4.33,4.33,2.75,14.86-1.17,40.97-.73,4.85-1.54,10.23-2.42,16.21-3.52,24.45-5.39,45.52-4.14,46.8,1.25,1.32,25.78-22.53,54.45-52.93l52.18-55.34,35.75.08c19.65,0,35.75,1.09,35.75,2.37,0,4.21-74.07,84.19-77.96,84.19-2.13,0-12.61,8.5-23.32,18.92ZM936.65,698.01c-1.21-1.24-6.45,1.54-11.66,6.17-5.17,4.63-.11-1.73,11.29-14.07,11.4-12.38,33.18-37.69,48.4-56.32,23.21-28.33,26.73-34.35,21.78-37.2-4.14-2.37-7.22-1.5-10.3,2.78-2.42,3.39-6.27,6.17-8.58,6.17s-16.9,12.26-32.49,27.27c-22.33,21.48-25.04,23.36-12.83,8.88,8.51-10.12,15.47-20.16,15.47-22.35s3.56-7.79,7.88-12.53c6.09-6.62,6.93-9.74,3.67-13.73-3.34-4.18-1.25-6.09,10.82-9.78,39.49-12.15,91.41-42.02,131.64-75.73,9.09-7.6,19.4-14.86,22.92-16.14,3.52-1.24,6.42-4.44,6.42-7.11,0-6.17,17.71-27.42,20.46-24.57,3.23,3.31-19.18,53.61-40.85,91.56-21.34,37.39-84.67,125.68-90.13,125.68-1.91,0-8.03,3.46-13.6,7.71-5.57,4.21-14.19,7.6-19.1,7.49-4.91-.15-13.64-.26-19.4-.3-7.3-.08-11.04-2.33-12.36-7.49-2.86-11.29-14.74-8.95-21.38,4.21-3.23,6.4-6.86,10.61-8.07,9.37ZM913.99,508.18c.11-4.36,0-9.1-.33-13.58,1.14-.98,1.32-3.46.59-6.96l35.38-12.19c73.63-25.36,120.27-49.84,163.94-86.03,10.08-8.35,16.24-12.45,13.68-9.1-5.17,6.77-2.46,18.32,4.33,18.32,2.38,0,6.34,2.03,8.76,4.51,3.45,3.54,1.43,7.67-9.17,18.81-14.12,14.86-11.62,17.72-.18,9.1-13.13,10.83-28.71,22.65-33.92,25.17-3.04,1.47-10.45,6.06-16.5,10.19-6.05,4.1-21.71,12.72-34.83,19.07-13.13,6.32-27.94,13.77-33,16.48-5.06,2.75-14.96,6.77-22,8.99-7.04,2.22-24.09,8.13-37.88,13.13-3.59,1.32-6.89,2.48-9.9,3.5-12.03,3.5-19.73,4.4-24.16,2.63-4.33-2.82-5.17-9.86-4.8-22.04ZM733.73,496.86c4.47,6.73,3.01,7.64-14.89,15.61-8.07,3.61-19.03,8.05-27.65,11.25,6.71-2.75,12.06-5.79,12.72-7.86.7-2.18,3.85-2.93,7-1.69,3.7,1.47,2.64-1.39-2.97-8.01-4.8-5.64-11.22-15.61-14.26-22.2-4.33-9.29-7.92-12-16.21-12.11-8.21-.11-15.07-5.19-30.18-22.23-10.78-12.15-19.58-23.66-19.58-25.58s-3.3-7.82-7.33-13.09c-18.26-23.81-28.56-97.24-17.97-128.36,4.25-12.53,10.63-12.68,10.63-.23,0,11.47,20.79,73.51,31.28,93.26,5.17,9.71,13.42,22.68,18.33,28.82l8.98,11.14-2.35-46.08c-1.72-33.63-1.21-46.08,1.87-46.08,1.87,0,3.48-3.12,4.03-7.41.7,6.24,1.25,14.86,1.94,27.12,3.15,54.74,17.23,94.84,51.85,146.71,1.25,1.88,2.49,3.72,3.81,5.64.33.49.62.94.92,1.35v.04ZM2555.85,407.1c.88,4.33-1.32,3.46-10.96-4.33-5.9-4.78-12.25-6.51-19.03-5.19-8.18,1.62-12.03-.3-19.65-9.74-8.07-10.01-11.99-11.77-26.07-11.77-17.01,0-48.36,15.01-48.36,23.14,0,2.6-4.91,3.12-13.75,1.5-7.55-1.39-20.86-3.12-29.59-3.8-8.69-.71-16.35-1.88-16.98-2.6-3.52-4.03,19.14-31.52,33.92-41.15,24.46-15.91,48.62-22.23,85.11-22.23,25.78,0,71.35,5.72,76.23,9.52,1.32,1.05-6.64,50.41-9.42,58.2-1.1,3.12-1.76,6.92-1.43,8.46ZM698.05,235.45c-7.55,9.37-12.61,12.72-18.37,12.72-6.71,0-13.75,3.95-18.85,9.59h0c-4.44,4.85-7.37,10.98-7.44,16.97-.15-6.32,2.68-12.79,8.47-18.4,4.69-4.48,10.45-8.16,12.83-8.16s4.36-2.63,4.36-5.87c0-20.84,46.75-90.1,77.37-114.62,8.87-7.11,13.93-10.04,11.26-6.58-.51.64-.99,1.24-1.43,1.77-1.1,1.32-1.91,2.29-1.69,2.71.59,1.2,8.91-1.73,40.3-12.64,4.62-1.62,9.72-3.39,15.36-5.38,20.17-7,48.62-13.96,63.25-15.46,25.7-2.6,26.58-2.41,26.58,5.57,0,4.51-4.95,12.72-11,18.13-7.55,6.81-13.05,17.04-11.29,18.81-7.66.49-16.43,1.5-27.21,3.08l-3.45.49c-3.52.53-7,1.02-10.38,1.58-5.87.9-10.63,1.69-14.85,2.56h-.04c-7.08,1.39-12.61,2.75-15.29,3.91-11.59,5-22.59,10.35-32.96,16.06v-.3l-18.15,10.5c-5.9,3.42-11.44,7.3-15.18,10.53-5.28,3.84-10.38,7.86-15.25,12.04-.11.08-.26.11-.4.23-7.59,4.25-25.89,24.38-36.56,40.18ZM1147.86,265.2c-8.76,15.24-9.2,15.42-12.25,5.61-1.28-4.1-4.29-7.07-6.67-6.58-3.04.6-4.99-10.65-6.38-36.83-1.1-20.73-3.34-39.88-4.95-42.55-1.58-2.67-.88-9.82,1.58-15.91,3.52-8.77,3.48-12.26-.11-16.7-2.75-3.39-3.04-5.64-.77-5.64,6.56,0,29.11,34.95,34.03,52.67,6.38,23.1,4.55,50.26-4.47,65.95ZM1140.08,104.57c-4.14-2.63-6.31-2.03-6.16,1.32-6.23-18.25-13.35-28.59-24.02-35.02-13.38-8.09-16.68-14.56-7.44-14.56s31.28-25.66,31.28-35.85c0-1.02.04-1.92.07-2.75.4,2.67,2.64,4.74,5.32,4.74,2.27,0,3.59-1.05,3.74-2.86,1.43,2.56,3.01,5.68,4.77,9.48,4.55,9.82,13.16,21.25,19.1,25.35l10.85,7.49-16.43,14.41c-10.01,8.8-16.46,17.61-16.5,22.61,0,4.48-1.58,10.65-3.45,13.69-.7,1.13-1.25,1.92-1.76,2.48.48-.56.99-1.35,1.61-2.37,2.09-3.46,1.72-6.43-.99-8.16ZM1016.26,77.15c10.08,10.27-.95,12.41-21.85,4.29-16.9-6.62-29.37-7.98-77-8.61-52.25-.64-64.31-.56-64.72-2.75-.15-.64.73-1.47,1.91-2.6.4-.38.84-.79,1.28-1.24,12.21-12.56,30.36-15.27,71.5-10.8,45.06,4.97,81.04,13.73,88.88,21.71ZM882.42,787.05c1.25,9.82,1.54,17.87.7,17.87-2.64,0-5.94-16.36-6.01-29.53-.07-20.05-9.57-34.95-35.24-55.11-13.13-10.35-25.41-20.65-27.28-22.87-4.99-6.02,7.74-5.34,16.54.87,4,2.78,11.07,5.08,15.73,5.08s12.54,2.75,17.53,6.09c8.58,5.76,9.68,5.57,21.85-3.95l12.8-10.01-7.92,13.77c-6.34,11.02-7.11,15.16-3.74,20.65,3.23,5.3,2.86,10.61-1.5,23.1-3.74,10.72-4.91,22.2-3.45,34.04ZM1214.74,312.15c-4.33,21.29-23.58,59.7-27.02,53.95-1.06-1.77,2.35-15.91,7.63-31.41,7.85-23.17,9.53-34.8,9.39-64.89-.07-20.16,1.06-36.68,2.53-36.68,8.43,0,13.24,50.82,7.48,79.04ZM899.07,605.46c-20.53,3.91-101.28,7.67-113.67,5.3-6.97-1.32-32.12-5.91-58.12-10.61,5.1.64,32.82.56,63.62-.26,36.12-.94,54.89-2.33,74.73-6.36-11.4,2.75-20.35,4.66-23.39,4.82-4.18.26-1.83,1.88,5.5,3.84,7.04,1.88,25.23,2.67,40.33,1.77,22.18-1.32,24.31-1.05,11,1.5ZM1236.7,150.65c-5.9,6.02-11.26,10.87-11.92,10.76-.66-.11-6.67-5.94-13.38-12.9-11.88-12.34-11.99-12.75-4.58-16.82,4.18-2.29,7.59-3.05,7.59-1.69s2.35.45,5.24-1.99c4.07-3.5,7.7-3.16,16.5,1.5,6.2,3.31,11.26,6.92,11.26,8.05s-4.84,7.03-10.71,13.09ZM729.92,537.56c1.25-.26,2.46-.56,3.67-.83l30.69-7.3,14.96,15.35c8.25,8.46,13.68,16.67,12.1,18.32-3.48,3.57-52.18,7.6-98.34,8.2,2.86-.11,5.94-.23,9.2-.34,47.34-1.66,49.13-2.03,60.46-12.38,8.32-7.6,10.63-11.96,7.99-15.24-3.37-4.14-14.08-4.66-63.29-1.5,6.82-1.02,14.37-2.45,22.55-4.29ZM1224.31,33.73c4.62,0,4.8-1.05,1.1-5.64-.37-.45-.73-.87-1.06-1.28.92.94,1.91,2.03,3.01,3.31,6.56,7.45,6.56,7.82-.59,15.16-7.22,7.45-7.41,7.45-13.75.23-3.12-3.54-4.55-5.79-4.44-8.31.59.19,1.87-.23,3.92-1.05,3.41-1.32,8.73-2.41,11.81-2.41ZM616.65,248.88c0,2.71-1.65,7.45-3.59,10.57-2.9,4.59-3.56,4.1-3.59-2.6-.04-4.55,1.58-9.29,3.59-10.57s3.63-.11,3.59,2.6ZM1126.88,457.43c16.02-16.33,31.5-33.56,37.4-42.32-2.02,3.35-5.1,7.6-9.46,12.68-7.41,8.61-17.56,19.3-27.94,29.64ZM726.66,600.05c-12.03-2.14-24.16-4.36-34.76-6.24-5.87-1.05-11-2.07-15.4-3.08,4.8,1.05,10.49,2.14,17.23,3.27,15,2.56,29.74,5.27,32.93,6.06ZM902,133.72c-3.26.08-7.33.3-11.95.68.37-.15.73-.38,1.14-.64.95-.6,5.1-.56,10.82-.04ZM1166.74,409.77c-.11-2.33-1.43-3.46-3.48-3.54,3.08-.87,4.36.38,3.48,3.54ZM964.22,563.14c1.03-.38,2.02-.79,3.04-1.17-10.08,4.18-20.31,8.2-29.7,11.55-3.56,1.28-8.69,2.93-14.81,4.74,6.45-1.96,11.73-3.61,14.81-4.74,8.29-2.97,17.67-6.66,26.66-10.38ZM908.82,471.16c-.51-3.69,1.69-5.34,9.64-8.24h.11c-7.85,2.86-10.12,4.51-9.75,8.24ZM646.72,544.22c-3.37-.45-5.28-1.17-5.9-2.18,0-.04-.04-.11-.07-.15.7,1.02,2.79,1.81,5.98,2.33ZM1146.98,417.11c-1.58,1.5-3.48,3.27-5.68,5.19.4-.34.81-.71,1.17-1.09,1.58-1.47,3.08-2.86,4.51-4.1ZM1217.34,23.16c-1.72.83-3.52,3.2-5.98,7.19,2.49-4.1,4.22-6.47,5.98-7.19ZM654.53,581.35c-.77-1.09-1.14-2.22-1.14-3.46v-.23c.07,1.35.44,2.56,1.14,3.69ZM640.34,539.93c.37-1.32,2.2-2.11,5.28-2.11-2.97,0-4.84.83-5.28,2.11ZM666.59,530.23c-.37,0-.73,0-1.06.04-1.5,0-3.01.19-4.4.53,1.39-.34,2.9-.53,4.4-.56h1.06ZM1134.88,12.55c.11-.23.26-.38.4-.53-.15.15-.29.34-.4.53Z"/>
  <path class="st11" d="M1168.9,314.63c-5.65,12.75-14.45,27.16-19.62,31.98-5.17,4.82-8.18,6.58-6.67,3.91,1.54-2.71.73-7.37-1.76-10.46-3.96-4.89-5.28-4.85-10.93.41-3.7,3.42-7.37,4.44-8.62,2.41-1.17-1.96,1.14-4.48,5.13-5.53,4.66-1.24,7.33-5.19,7.37-10.8,0-4.85,4.88-14.41,10.78-21.29,13.16-15.35,20.75-46.27,16.39-67l-3.04-14.56-2.02,15.05c-.29,2.22-.81,4.78-1.47,7.45,2.75-14.41,2.13-31.56-2.13-46.95-2.2-7.94-7.96-19.37-14.23-29.53,7.08,10.08,14.12,18.02,16.17,18.09,2.2.08,6.97-3.24,10.63-7.37,7.26-8.24,16.28-10.68,9.79-2.63-2.9,3.54-2.38,11.1,1.76,27.27,8.62,33.78,5.43,80.02-7.55,109.55ZM1084.05,193.58c.26,5.15-11.44,6.96-14.3,2.22-1.28-2.14-.7-7.11,1.36-11.02,8.8-16.85-7.22-44.47-36.34-62.6-11.62-7.26-23.21-15.76-25.78-18.92-2.6-3.24-7.52-4.82-11.29-3.57-5.1,1.66-7.99-.94-12.03-10.87-3.08-7.6-4.95-10.87-10.63-12.87,7.22,1.24,12.98,3.01,19.36,5.49,11.77,4.59,20.42,5.91,23.91,4.33,1.54,3.24,6.31,7.03,12.8,10.08,7.59,3.5,21.23,14.22,30.32,23.85,15.33,16.21,16.76,19.45,19.51,43.83,1.61,14.48,3.04,27.99,3.12,30.06ZM854.04,71.01c3.37.98,13.82,1.2,39.23,1.54-26,1.2-37.11.94-39.23-1.54ZM992.6,66.95c-16.28-4.51-39.27-8.65-65.23-11.51-16.76-1.81-29.7-2.45-39.97-1.69,8.07-.71,17.67-.53,29.19.41,31.35,2.63,57.97,7.22,76.01,12.79ZM1126.55,261.67c.7,1.92,1.5,2.75,2.38,2.56,2.38-.49,5.39,2.48,6.67,6.58v.04c-2.27-3.95-5.5-6.81-7.37-6.43-.55.08-1.14-.87-1.69-2.75ZM1140.41,276.79c1.54-1.43,3.67-5.04,7.19-11.14-.18.38-.37.71-.55,1.05-3.41,6.47-5.17,9.59-6.64,10.08ZM1117.46,146.74c-1.28.56-.73,2.6,1.61,5.49-2.49-3.08-3.04-4.97-1.61-5.49ZM1118.81,146.67c-.15-.04-.29-.08-.44-.08h.11c.07,0,.18.04.33.08Z"/>
  <path class="st8" d="M936.65,698.01c1.21,1.24,4.84-2.97,8.07-9.37,6.64-13.17,18.52-15.5,21.38-4.21,1.32,5.15,5.06,7.41,12.36,7.49,5.76.04,14.48.15,19.4.3,4.91.11,13.53-3.27,19.1-7.49,5.57-4.25,11.7-7.71,13.6-7.71.66,0,2.24-1.35,4.47-3.76-25.56,31.07-55.22,64.25-89.98,100.63l-51.15,53.61h28.05c1.03,0,2.05,0,3.04.04-2.27-.04-4.62-.04-7.08.04-17.42.34-33.33.38-35.35,0-1.8-.34-20.46-.38-43.08-.19,19.47-.34,33.92-1.5,33.92-2.86,0-1.66-17.16-18.88-38.13-38.26-61.27-56.62-135.67-142.39-156.5-180.46-4.4-8.01-12.06-16.44-17.09-18.81-2.46-1.13-4.33-2.41-5.57-3.8,3.15,2.82,9.39,5.12,20.39,7.52h0c4.4,1.02,9.53,2.03,15.4,3.08,10.6,1.88,22.73,4.1,34.76,6.24l.07.04c.15.04.33.04.55.08,26,4.7,51.15,9.29,58.12,10.61,12.39,2.37,93.14-1.39,113.67-5.3,13.31-2.56,11.18-2.82-11-1.5-12.94.79-28.12.3-36.63-1.02,14.23,1.02,37.03,1.05,53.13-.71,20.75-2.22,42.75-7.3,65.01-14.75-2.35,1.66-2.16,3.27-.29,5.61,3.26,3.99,2.42,7.11-3.67,13.73-4.33,4.74-7.88,10.38-7.88,12.53s-6.97,12.23-15.47,22.35c-12.21,14.48-9.5,12.6,12.83-8.88,3.45-3.31,6.86-6.51,10.08-9.44-24.16,23.17-63.32,67.15-72.35,82.84-4.07,7.15-6.97,14.9-7.3,19.22-.66-3.87.99-8.24,5.57-16.18l1.72-3.05,6.2-10.72-12.8,10.01c-12.17,9.52-13.27,9.71-21.85,3.95-4.99-3.35-12.87-6.09-17.53-6.09s-11.73-2.29-15.73-5.08c-8.8-6.21-21.52-6.88-16.54-.87,1.87,2.22,14.15,12.53,27.28,22.87,25.67,20.16,35.16,35.06,35.24,55.11.07,13.17,3.37,29.53,6.01,29.53.84,0,.55-8.05-.7-17.87-1.47-11.85-.29-23.32,3.45-34.04,3.74-10.65,4.55-16.06,2.68-20.73.77.71,1.58,1.17,2.24,1.17,4.44,0,58.92-57.59,90.2-95.1-14.89,17.98-34.17,40.36-44.7,51.76-11.4,12.34-16.46,18.7-11.29,14.07,5.21-4.63,10.45-7.41,11.66-6.17ZM685.99,525.56h0c-8.47,2.82-15,4.4-19.4,4.66h-1.06c-1.39.04-2.79.19-4.11.49-.07.04-.15.04-.22.08-2.79.64-5.13,1.88-5.98,3.27-1.25,2.07-5.57,3.76-9.61,3.76-2.97,0-4.84.83-5.28,2.11-.15.56-.07,1.2.37,1.88.07.11.11.19.11.23.62,1.02,2.53,1.73,5.9,2.18,8.65,1.43,25.34,1.09,43.45-.64,4.99-.19,10.74-.75,17.2-1.73,49.21-3.16,59.91-2.63,63.29,1.5,2.64,3.27.33,7.64-7.99,15.24-11.33,10.35-13.13,10.72-60.46,12.38-3.26.11-6.34.23-9.2.34-1.28.04-2.57.04-3.85.04-22.73.23-31.86.98-34.69,3.46.07-4.59-3.74-14.82-9.09-24.11-54.93-95.44-72.57-178.95-54.63-258.67,13.97-62,48.03-121.85,89.65-157.55,40.92-35.1,92.92-61.73,142.34-72.98,15.36-3.5,33.84-5.45,53.24-6.13-8.65,1.99-14.92,5.53-20.09,10.87-.44.45-.88.87-1.28,1.24-1.17,1.13-2.05,1.96-1.91,2.6.07.38.48.68,1.36.94,2.13,2.48,13.24,2.75,39.23,1.54,1.8,0,3.67.04,5.61.04-24.24,1.69-48.14,5.19-62.41,9.74-13.27,4.25-34.1,14.33-46.31,22.46-13.09,8.65-21.16,14.82-23.91,18.06.44-.53.92-1.13,1.43-1.77,2.68-3.46-2.38-.53-11.26,6.58-30.62,24.53-77.37,93.78-77.37,114.62,0,3.24-1.94,5.87-4.36,5.87s-8.14,3.69-12.83,8.16c-5.79,5.61-8.62,12.08-8.47,18.4v.15c0,6.96,3.52,13.24,10.71,19.11,7.08,5.76,9.53,8.43,11.11,22.01-.55,4.29-2.16,7.41-4.03,7.41-3.08,0-3.59,12.45-1.87,46.08l2.35,46.08-8.98-11.14c-4.91-6.13-13.16-19.11-18.33-28.82-10.49-19.75-31.28-81.78-31.28-93.26,0-12.45-6.38-12.3-10.63.23-10.6,31.11-.29,104.54,17.97,128.36,4.03,5.27,7.33,11.14,7.33,13.09s8.8,13.43,19.58,25.58c15.11,17.04,21.96,22.12,30.18,22.23,8.29.11,11.88,2.82,16.21,12.11,3.04,6.58,9.46,16.55,14.26,22.2,5.61,6.62,6.67,9.48,2.97,8.01-3.15-1.24-6.31-.49-7,1.69-.66,2.07-6.01,5.12-12.72,7.86-1.87.68-3.63,1.32-5.21,1.84ZM2301.16,364.89c10.71-10.42,21.19-18.92,23.32-18.92,1.21,0,9.31-7.82,19.87-18.73-.84.87-1.65,1.73-2.46,2.63l-60.57,64.48,10.49,16.25c10.52,16.33,21.74,34.23,53.35,85.13,9.39,15.12,16.13,29.12,14.96,31.04-1.17,1.96-16.72,3.54-34.54,3.54h-32.41l-28.42-46.08c-15.62-25.35-32.52-52.82-37.62-61.02-11.48-18.66-12.25-17.04-20.83,45.03-3.41,24.83-7.7,48.94-9.46,53.61-2.97,7.71-5.65,8.46-30.62,8.46-15.03,0-28.27-1.5-29.37-3.35-1.1-1.81-.44-12.41,1.47-23.51,2.97-17.08,10.45-66.25,29.37-193.1-4.25,29.19-4.77,37.47-4,45.41.66,6.7,29.85,18.32,45.03,17.91,7.74-.23,14.04,1.2,14.04,3.12s1.32,2.67,2.93,1.62c1.61-1.02,4.77-.68,7,.75,2.24,1.39,14.19,3.01,26.51,3.61q22.44,1.02,41.95-17.87ZM2555.85,407.1c-.33-1.54.33-5.34,1.43-8.46.62-1.69,1.47-5.45,2.46-10.23-5.17,34.27-10.63,76.18-10.63,84.15,0,10.27,1.43,12.6,7.63,12.6s7.3,1.66,5.5,11.29c-1.17,6.21-3.04,16.21-4.18,22.2-1.83,9.89-3.63,11.06-18.74,12.3-23.1,1.88-38.35-4.06-45.1-17.57-3.08-6.21-6.05-12.04-6.6-12.94-.55-.87-7.15,4.51-14.67,12.04-7.52,7.49-18.33,15.42-24.02,17.61-15.58,6.02-43.12,4.78-57.42-2.6-37.36-19.26-47.34-79.68-21.71-131.48.44-.87.88-1.73,1.28-2.56.04.34.18.64.37.87.62.71,8.29,1.88,16.98,2.6,8.73.68,22.04,2.41,29.59,3.8,8.84,1.62,13.75,1.09,13.75-1.5,0-3.72,6.53-8.84,15.22-13.32-9.28,5.94-16.5,14.37-20.39,24.34-13.53,34.61-10.27,60.15,8.91,70.12,5.1,2.63,7.37,4.06,9.75,4.25,2.38.23,4.88-.87,10.49-3.31,1.03-.45,2.16-.94,3.41-1.47,17.89-7.67,30.4-29.49,36.92-64.4,3.01-16.1,4.66-31.41,3.78-34.38,1.98,1.66,4,3.87,6.34,6.81,7.63,9.44,11.48,11.36,19.65,9.74,6.78-1.32,13.13.41,19.03,5.19,9.64,7.79,11.84,8.65,10.96,4.33ZM2850.15,529.77c-6.86,2.37-24.16,4.29-38.5,4.29-53.97-.04-66.04-23.44-51.7-100.29,3.01-16.21,5.5-34.8,5.5-41.31,0-4.55-.26-7.41-1.5-9.4.95.94,1.5,1.88,1.5,2.82,0,6.96,12.58,6.7,18.33-.41,6.2-7.67,12.25-7.07,20.17,1.88,8.47,9.59,14.41,9.52,23.39-.38.7-.75,1.32-1.43,1.98-2.03l-5.76,34.38c-8.07,48.08-8.14,56.35-.59,64.14,4.95,5.08,10.6,5.94,27.68,4.36l21.49-1.99-2.46,17.53c-2.82,20.39-3.12,20.8-19.54,26.41ZM2623.14,398.37c.81-2.45,18.81-4.78,45.14-5.87,24.13-1.02,44.7-3.2,45.76-4.82,1.06-1.66,5.61-4.97,10.16-7.45,3.23-1.73,5.46-4.03,6.78-7.07-.15.94-.26,1.88-.37,2.9l-2.57,22.57h-19.91c-41.91,0-52.25,12-61.82,71.81-3.12,19.49-6.53,40.89-7.59,47.63l-1.94,12.23h-31.02c-22.29,0-30.98-1.32-31.02-4.7-.11-8.39,17.12-118.5,25.23-164.02,0,.98-.04,1.99-.07,3.05-.33,16.06,1.17,21.25,8.32,28.48,9.83,9.97,13.02,11.1,14.92,5.27ZM1147.86,265.2c3.01-5.23,5.24-11.77,6.6-19,.66-2.67,1.17-5.23,1.47-7.45l2.02-15.05,3.04,14.56c4.36,20.73-3.23,51.65-16.39,67-5.9,6.88-10.78,16.44-10.78,21.29-.04,2.75-.7,5.08-1.87,6.92,1.8-2.97,1.83-6.32-1.17-6.32-1.98,0-4.58,2.67-5.79,5.94-.99,2.6-.84,4.21.26,4.63-3.26,1.2-4.99,3.39-3.92,5.15.44.71,1.21,1.05,2.16,1.05-.84.08-1.69-.04-2.38-.3-2.64-1.05-8.29,2.86-12.5,8.69-1.47,1.99-3.01,4.03-4.44,5.91,3.19-7.34,2.68-8.5-3.26-8.5-3.89,0-8.07,1.73-9.35,3.84-1.28,2.11-3.67,2.97-5.32,1.92-1.65-1.05-5.02.6-7.48,3.65-3.04,3.76-5.57,4.74-7.15,3.61-1.76-1.62-1.98-6.62.07-13.99.26-.79.44-1.62.66-2.48-.51,4.78-1.03,8.16-1.36,9.1-3.34,9.03,6.38,5.61,11.84-4.21l18.7-33.59c6.97-12.53,14.59-28.44,16.94-35.36,3.15-9.29,4.55-33.59,4.07-55.41l.04.6c.99,18.58,2.27,29.61,4,34.27.55,1.88,1.14,2.82,1.69,2.75,1.87-.38,5.1,2.48,7.37,6.43,1.76,5.68,2.64,8.01,4.8,5.94,1.47-.49,3.23-3.61,6.64-10.08.18-.34.37-.68.55-1.05l.26-.45ZM616.65,248.88c.04-2.71-1.58-3.87-3.59-2.6s-3.63,6.02-3.59,10.57c.04,6.7.7,7.19,3.59,2.6,1.94-3.12,3.59-7.86,3.59-10.57ZM1054.32,649.18c21.67-28.89,52.21-73.13,66.04-97.24-17.82,31.19-39.42,63.05-66.04,97.24ZM2834.16,381.71c4.69-1.96,11.59-1.84,26.44-.83,4.36.3,8.14.53,11.4.6-3.78.19-8.29.23-13.6.23h-24.24ZM1057.29,140.68c13.75,15.05,19.73,31.64,14.19,43.37,3.63-13.84-1.65-29.38-14.19-43.37ZM991.5,579.43c33.11-13.24,66.19-31.45,96.18-53.12-31.35,22.72-66.37,42.13-96.18,53.12ZM1074.48,311.51c-.92-18.51-4.36-39.2-9.57-57.63,5.79,18.66,9.24,38.67,9.57,57.63ZM842.89,837.68c-26.51-.23-49.21-.75-54.82-1.62-2.9-.45-5.28-1.28-6.71-2.26,1.36.53,3.34,1.05,5.87,1.62,5.06,1.13,28.38,1.92,55.66,2.26ZM2381.54,375.88c7.3-10.31,15.51-17.79,27.02-24.75-1.06.68-2.13,1.35-3.19,2.03-7.41,4.82-16.76,14.11-23.83,22.72ZM2540.45,334.76c-14.04-1.88-31.06-3.42-44.48-3.76,14.92.04,30.18,1.28,44.48,3.76ZM1082.4,379.49c.29-2.14,4.14-5.53,8.76-7.67.11-.04.22-.11.33-.15-1.36,1.24-2.79,2.56-4.14,3.84-1.43,1.35-3.15,2.71-4.95,3.99ZM780.12,830.91c1.8-1.88,22.99-3.42,47.67-3.42h3.01c-28.75.34-45.94,1.54-50.67,3.42ZM2565.94,350.94c.77-6.02,1.14-10.19.77-10.5-.84-.64-2.82-1.35-5.68-2.07l7.11,1.24-2.2,11.32ZM2732.44,363.99c.15-5.68,1.76-11.17,3.67-12.38.29-.19.55-.26.81-.26-1.39,1.17-3.04,5.61-4.47,12.64ZM1033.97,195.34c4.07,4.55,7.92,9.71,11.48,15.39-3.26-4.59-7.11-9.48-11.22-14.3-.04-.34-.11-.68-.26-1.09ZM1055.49,398.64c-3.12,0-13.57,4.93-23.83,10.68,10.08-5.72,20.2-10.68,22.88-10.68,1.76,0,4.84-1.92,7.74-4.63-1.36,2.63-4.25,4.63-6.78,4.63ZM992.6,66.95c-5.76-1.77-12.39-3.46-19.76-5,12.83,2.41,23.76,5.38,31.64,8.8-3.41-1.28-7.41-2.56-11.88-3.8ZM1071.73,131.51c-2.49-3.39-5.79-7.03-10.3-11.81-9.09-9.59-22.7-20.31-30.29-23.85,7.59,3.5,21.01,13.92,29.77,23.1,4.84,5.04,8.29,8.8,10.82,12.56ZM1168.9,314.63c-5.65,12.75-14.3,27.12-19.25,31.9-3.12,3.01-5.28,4.66-6.38,4.93,1.17-.64,3.3-2.33,6.01-4.85,5.17-4.82,13.97-19.22,19.62-31.98ZM840.32,599.37c-.51-.53.07-.9,1.91-1.02,2.31-.11,8.14-1.28,15.84-3.05-6.53,1.58-12.06,2.86-15.84,3.61-.73.15-1.36.3-1.91.45ZM980.32,610.28c3.78-3.01,6.42-4.74,7.26-4.74.22,0,.44-.04.66-.08-2.05,1.39-4.22,2.71-6.27,3.84-.51.23-1.03.56-1.65.98ZM1132.82,337.96c2.86-2.18,4.33-1.99,6.64.49-1.98-1.28-4.44-1.58-6.64-.49ZM1119.58,193.84c-.18-.75-.37-1.47-.55-2.14-.7-2.48-1.21-4.82-1.5-7,.04.04.07.08.07.15.62.98,1.28,4.25,1.98,8.99ZM1075,198.5c1.98.19,4.14-.15,5.83-.9-1.32,1.39-3.23,1.62-5.83.9ZM767.94,125.34c-2.24.56-3.19.6-3.37.23-.22-.41.51-1.32,1.58-2.56-1.69,2.03-1.1,2.86,1.8,2.33ZM2662.92,334.38l-.07.3h-8.1l8.18-.3ZM2396.5,270.02c3.23-3.91,5.35-6.7,5.83-7.82.07.08.11.15.11.23,0,.45-2.13,3.16-5.94,7.6ZM1082.92,181.58c-.44-4.18-.99-9.07-1.58-14.26.77,5.57,1.28,10.31,1.58,14.26ZM1069.28,190.3c-.29,1.81-.29,3.5.11,4.7-.7-1.24-.7-2.82-.11-4.7ZM1143.38,347.32c0,1.2-.26,2.29-.77,3.2-.04.08-.07.15-.11.23,0-.34.15-.83.37-1.43.26-.68.4-1.35.51-1.99ZM1071.95,385.28c1.25-.71,2.49-1.24,3.56-1.5-1.25.64-2.42,1.13-3.41,1.47-.04,0-.11.04-.15.04ZM780.63,121.31c9.28-3.2,24.68-8.58,39.6-13.77-5.65,1.99-10.74,3.76-15.36,5.38-10.45,3.61-18.33,6.4-24.24,8.39ZM1125.19,343.56c1.43-.53,3.08-1.58,4.73-3.08l.11-.11c-1.32,1.5-3.08,2.63-4.84,3.2ZM1121.71,160.32c.29-3.16-.59-5.53-2.64-8.09,2.09,2.6,3.01,4.89,2.64,8.09ZM2425.02,342.43c1.98-.9,4.07-1.73,6.31-2.52-2.13.79-4.22,1.62-6.31,2.52ZM2893.45,363.09c.33-2.78.59-5.98.84-9.63l1.21-16.89-1.21,16.93c-.26,3.65-.51,6.85-.84,9.59ZM936.21,574.01c.48-.15.92-.3,1.36-.49,7-2.52,14.52-5.38,22.07-8.43-7.52,3.05-15.03,5.91-22.07,8.46-.4.15-.84.3-1.36.45ZM2489.37,376.55c-1.8-.23-3.78-.38-5.98-.45,2.27.08,4.22.19,5.98.45ZM2480.54,376.06c-.62,0-1.25,0-1.83.04.48-.04.95-.04,1.43-.04h.4Z"/>
  <path class="st12" d="M886.23,588.61c12.47-3.35,26.03-7.19,36.52-10.35,5.35-1.58,10.01-3.05,13.46-4.25.51-.15.95-.3,1.36-.45,7.04-2.56,14.56-5.42,22.07-8.46,2.57-1.02,5.1-2.07,7.63-3.12,29.19-11.25,52.29-22.16,56.47-27.69,2.82-3.76,29.33-19.04,33.04-19.04,1.8,0,7.7-4.21,13.13-9.4,5.46-5.19,11.07-9.4,12.47-9.4,4.25,0,24.79-18.85,44.51-39.01,10.38-10.35,20.53-21.03,27.94-29.64,4.36-5.08,7.44-9.33,9.46-12.68,1.58-2.37,2.46-4.14,2.46-5.08v-.26c.88-3.16-.4-4.4-3.48-3.54-3.41-.15-8.8,2.71-13.38,7.86-.7.83-1.69,1.84-2.9,3.01-1.43,1.24-2.93,2.63-4.51,4.1-.37.38-.77.75-1.17,1.09-3.04,2.71-6.56,5.72-10.3,8.77-11.44,8.61-13.93,5.76.18-9.1,10.6-11.14,12.61-15.27,9.17-18.81-2.42-2.48-6.38-4.51-8.76-4.51-6.78,0-9.5-11.55-4.33-18.32,2.57-3.35-3.59.75-13.68,9.1-27.72,22.99-56.65,41.23-92.88,57.97,45.8-21.29,78.65-44.73,107.55-75.5,14.12-15.05,22.73-25.09,19.18-22.35-5.32,4.06-6.12,4.18-4.66.04-.15.49-.26.87-.26,1.17-.55,1.05-.22,1.28.77.71,1.1-.26,3.26-1.92,6.38-4.93,4.95-4.78,13.6-19.15,19.25-31.9,12.98-29.53,16.17-75.76,7.55-109.55-4.14-16.18-4.66-23.74-1.76-27.27,1.61-2.03,2.27-3.39,2.24-4.14l8.47,10.35c8.47,10.38,17.53,30.06,23.83,50.03-.62-.6-1.28-.94-1.98-.94-1.47,0-2.6,16.51-2.53,36.68.15,30.09-1.54,41.72-9.39,64.89-5.28,15.5-8.69,29.64-7.63,31.41,1.17,1.99,4.29-1.32,7.99-7.34-1.14,2.11-2.31,4.25-3.52,6.43-13.49,24.19-17.78,35.32-16.17,41.98,1.25,5.12-1.21,19.45-5.68,33.14-3.78,11.55-7.88,22.95-12.39,34.31,3.15-8.31,4.58-13.84,3.59-14.86-2.75-2.86-20.46,18.4-20.46,24.57,0,2.67-2.9,5.87-6.42,7.11-3.52,1.28-13.82,8.54-22.92,16.14-7.66,6.43-15.73,12.68-24.05,18.73-29.99,21.67-63.07,39.88-96.18,53.12-3.89,1.43-7.7,2.75-11.4,3.87-5.32,1.62-8.69,2.9-10.52,4.18-22.26,7.45-44.26,12.53-65.01,14.75-16.1,1.77-38.9,1.73-53.13.71-1.43-.23-2.68-.49-3.7-.75-4.18-1.09-6.71-2.11-7.41-2.82.55-.15,1.17-.3,1.91-.45,3.78-.75,9.31-2.03,15.84-3.61,2.38-.53,4.88-1.13,7.55-1.77,6.53-1.35,13.2-2.97,20.61-4.93ZM928.4,137.71c-4.11-1.02-10.6-2.18-20.17-3.72-1.39-.23-3.52-.3-6.23-.26-5.72-.53-9.86-.56-10.82.04-.4.26-.77.49-1.14.64-.66.08-1.32.11-2.02.19h-.26c-1.76-1.77,3.74-12,11.29-18.81,6.05-5.42,11-13.62,11-18.13,0-3.69-.18-5.72-2.93-6.58,34.54-1.62,42.94-.6,64.64,6.17,22.59,7.03,26.55,9.56,28.67,18.4,6.6,27.5,24.24,48.72,49.98,60.23,5.61,2.48,11.22,7.3,12.5,10.72,2.09,5.64,2.75,5.61,7.15-.56.62-.87,1.14-1.77,1.58-2.71-.29.98-.44,1.24-.55,1.47-.92,1.73-1.54,3.69-1.83,5.53-.59,1.88-.59,3.46.11,4.7.11.3.22.56.37.79.99,1.62,3.01,2.48,5.24,2.71,2.6.71,4.51.49,5.83-.9,1.39-.6,2.49-1.47,2.97-2.56.62,1.66,3.3,2.26,6.71,1.32,4.84-1.28,10.52,1.92,17.64,9.89,5.79,6.51,11.66,11.81,13.02,11.81.33,0,.55-.38.73-1.05.26,3.16.44,6.47.62,9.78.48,21.82-.92,46.12-4.07,55.41-2.35,6.92-9.97,22.83-16.94,35.36l-18.7,33.59c-5.46,9.82-15.18,13.24-11.84,4.21.33-.94.84-4.33,1.36-9.1,2.16-9.37,2.82-21.48,2.16-34.76-.33-18.96-3.78-38.97-9.57-57.63-3.7-12.98-8.25-24.79-13.49-33.93-1.61-2.86-3.67-5.98-5.98-9.22-3.56-5.68-7.41-10.83-11.48-15.39-.7-2.14-3.15-5.23-6.56-8.01-1.87-1.54-4.25-3.54-6.78-5.72-11.22-11.36-21.85-19.98-26.18-19.98-2.05,0-3.7-1.43-3.7-3.16,0-4.25-18.08-12.49-21.96-10.01-1.72,1.05-5.32-.26-7.99-2.97-2.68-2.71-8.18-5.04-12.21-5.15-3.01-.11-11.18-1.2-20.17-2.63ZM980.32,610.28c.62-.41,1.14-.75,1.65-.98,2.05-1.13,4.22-2.45,6.27-3.84,2.31-.41,5.72-3.01,7.92-6.09,3.08-4.29,6.16-5.15,10.3-2.78,4.95,2.86,1.43,8.88-21.78,37.2-1.21,1.47-2.42,3.01-3.7,4.55h0c-31.28,37.51-85.77,95.1-90.2,95.1-.66,0-1.47-.45-2.24-1.17-.33-.79-.7-1.58-1.17-2.37-.95-1.54-1.58-2.97-1.83-4.48.33-4.33,3.23-12.08,7.3-19.22,9.02-15.69,48.18-59.66,72.35-82.84,5.87-5.34,11.15-9.93,15.14-13.09ZM1016.26,77.15c-2.09-2.11-6.12-4.29-11.77-6.4-7.88-3.42-18.81-6.4-31.64-8.8-4.91-1.02-10.12-1.99-15.66-2.9,21.89,3.08,40.44,8.01,55.11,14.71,55.7,25.54,88.55,47.93,113.12,78.25-2.71-3.05-5.02-5-6.6-5.34-.15-.04-.26-.08-.33-.08h-.18c-.33,0-.62.04-.84.15-1.43.53-.88,2.41,1.61,5.49,2.09,2.6,2.97,4.89,2.64,8.09h0c-.22,2.26-1.06,4.97-2.53,8.61-2.42,5.98-3.15,12.98-1.65,15.76.29,2.18.81,4.51,1.5,7,.18.68.37,1.39.55,2.14.11.98.26,2.03.4,3.12-6.27-21.44-30.32-57.48-49.24-72.72l-15.84-12.75,11.51,12.87c4.4,4.89,7.3,8.92,9.35,13.92-1.03-2.29-2.35-4.48-4.03-6.77-2.53-3.76-5.98-7.52-10.82-12.56-8.76-9.18-22.18-19.6-29.77-23.1h-.04c-6.49-3.05-11.26-6.85-12.8-10.08,2.71-1.2,2.35-4.14-2.05-8.61ZM767.94,125.34c-2.9.53-3.48-.3-1.8-2.33l.11-.15h0c2.75-3.24,10.82-9.4,23.91-18.06,12.21-8.13,33.04-18.21,46.31-22.46,6.75-2.14,15.66-4.06,25.74-5.68-.11.04-.26.11-.37.15-3.34,1.43-6.89,5.87-7.92,9.86-1.5,5.91-.51,6.96,27.17,5.72-15.14,1.92-41.73,8.5-60.87,15.16-14.92,5.19-30.32,10.57-39.6,13.77-6.2,2.11-10.23,3.39-12.69,4.03ZM1244,134.29c-2.05-1.47-4.8-3.16-7.85-4.78-8.8-4.66-12.43-5-16.5-1.5-2.9,2.45-5.24,3.35-5.24,1.99s-3.37-.6-7.52,1.66l6.93-6.73c12.32-11.89,13.46-12.26,17.71-5.87,2.49,3.76,7.3,9.74,10.67,13.24.7.71,1.28,1.39,1.8,1.99ZM807.62,65.37c-38.68,11.1-78.1,31.07-111.8,56.65,21.52-16.93,45.91-31.3,72.93-42.85,13.49-5.76,26.11-10.31,38.87-13.81ZM631.28,193.12c-18.41,29.64-32.67,63.95-40.55,98.9,8.21-36.49,21.89-69.59,40.55-98.9ZM1216.75,267.2c.11.98.22,1.99.29,2.93.95,10.72.77,20.84-.66,31,1.06-10.68,1.1-22.87.37-33.93ZM1150.31,492.87c-12.58,28.7-27.83,57.18-46.46,86.45,5.83-9.22,11.33-18.32,16.5-27.39.11-.19.22-.41.33-.6,10.78-18.88,21.74-40.78,29.63-58.46ZM1201.79,136.58c.29,2.14,3.26,5.34,9.61,11.93,3.89,4.06,7.55,7.71,10.08,10.08-2.38-2.22-5.79-5.53-9.35-9.22l-11.44-11.7,1.1-1.09ZM1169.45,176.16l5.32-5.12,1.54,1.88c-1.14-.3-3.85.87-6.86,3.24ZM1154.16,187.82c2.05-.45,6.45-3.42,10.6-7.22-3.63,4.06-8.32,7.3-10.49,7.22h-.11ZM1057.29,140.68c2.71,3.01,5.06,6.09,7.08,9.22-5.9-8.73-14.45-17.38-24.82-24.6,6.82,4.7,12.8,9.93,17.75,15.39ZM1134.77,164.5c.95,1.39,1.94,2.82,2.9,4.25,1.61,2.45,3.26,4.82,4.84,6.96-1.43-1.88-2.9-3.87-4.4-5.98-1.1-1.81-2.24-3.57-3.34-5.23ZM1244.29,142.23c-1.39,1.96-3.74,4.44-7.15,7.94,2.79-2.86,5.32-5.68,7.15-7.94ZM909.15,312.15h.22c-8.54,0-33.4,1.88-56.8,3.99-22,1.96-42.72,4.18-47.34,5.27,4.66-1.09,25.34-3.31,47.34-5.27,23.36-2.11,48.14-3.99,56.58-3.99ZM1075.99,383.66c-1.28.64-2.57,1.13-3.89,1.58.99-.34,2.16-.83,3.41-1.47.15-.04.33-.08.48-.11ZM1132.82,337.96c2.2-1.09,4.66-.79,6.64.49h0c-2.02-1.24-4.51-1.54-6.71-.41l.07-.08ZM1091.68,371.55c-1.17,1.05-2.24,2.03-3.26,2.93,1.03-.94,2.09-1.92,3.08-2.82.04-.04.11-.08.18-.11ZM1081.45,168.07c-.04-.26-.07-.49-.11-.75-.11-1.24-.26-2.52-.4-3.8-.18-1.47-.33-2.86-.48-4.18.15,1.35.33,2.71.48,4.18.18,1.54.37,3.05.51,4.55ZM1082.4,379.49c.26-.19.51-.38.77-.56-.26.23-.51.41-.77.6v-.04Z"/>
  <path class="st1" d="M971.3,441.33c14.56-6.92,28.05-12.6,29.99-12.6h0c1.98,0,5.76-2.18,8.43-4.85,2.71-2.71,9.75-7.41,17.56-12,1.39-.79,2.71-1.54,3.89-2.29l.48-.26c10.27-5.76,20.72-10.68,23.83-10.68,2.53,0,5.43-1.99,6.78-4.63.99-.87,1.91-1.88,2.79-2.9,1.94-2.33,4.47-4.44,6.89-5.83.04,0,.11-.04.15-.04,1.32-.45,2.6-.94,3.89-1.58.29-.04.59-.08.88-.08,3.04,0,5.54-1.73,5.54-3.84v-.23c.26-.19.51-.38.77-.6,1.5-1.09,2.93-2.29,4.18-3.42l1.06-1.02c1.03-.9,2.09-1.88,3.26-2.93,4.69-2.41,10.12-8.05,12.25-12.83.07-.19.15-.34.22-.49,1.43-1.88,2.97-3.91,4.44-5.91,4.22-5.83,9.86-9.74,12.5-8.69.7.26,1.54.38,2.38.3.51-.04,1.1-.15,1.72-.38,1.76-.56,3.52-1.69,4.84-3.2,1.03-.94,1.91-1.73,2.71-2.33,2.2-1.13,4.69-.83,6.71.41.44.45.92,1.02,1.39,1.62,1.69,2.07,2.57,4.85,2.53,7.26-.11.64-.26,1.32-.51,1.99-.04.08-.07.19-.11.26-1.47,4.14-.66,4.03,4.66-.04,3.56-2.75-5.06,7.3-19.18,22.35-28.89,30.77-61.75,54.21-107.55,75.5-20.86,9.63-44.15,18.77-71.06,28.06l-35.38,12.19c-.48-2.29-1.32-5.04-2.57-8.05l-.66-1.66c-.11-.34-.22-.68-.37-1.02-.92-2.41-1.58-4.25-1.83-5.76-.37-3.72,1.91-5.38,9.75-8.24l2.49-.79c2.27-.68,4.4-1.47,6.31-2.26,10.85-3.8,30.1-11.93,43.93-18.55ZM917.4,72.82c29.66.38,45.69,1.09,57.64,3.12,5.68,1.99,7.55,5.27,10.63,12.87,4.03,9.93,6.93,12.53,12.03,10.87,3.78-1.24,8.69.34,11.29,3.57,2.57,3.16,14.15,11.66,25.78,18.92,1.65,1.02,3.23,2.03,4.77,3.12,10.38,7.22,18.92,15.88,24.82,24.6,7.15,11.14,9.83,22.76,7.3,33.41-.44.94-.95,1.84-1.58,2.71-4.4,6.17-5.06,6.21-7.15.56-1.28-3.42-6.89-8.24-12.5-10.72-25.74-11.51-43.38-32.73-49.98-60.23-2.13-8.84-6.09-11.36-28.67-18.4-21.71-6.77-30.1-7.79-64.64-6.17-3.23-.98-9.86-.38-23.65,1.02-.77.08-1.54.19-2.38.3-27.68,1.24-28.67.19-27.17-5.72,1.03-3.99,4.58-8.43,7.92-9.86.11-.04.26-.11.37-.15,11.22-1.77,23.91-3.16,36.67-4.06,5.5.08,11.66.15,18.52.23ZM1084.05,193.58c-.04-1.13-.48-5.72-1.14-12-.29-3.8-.77-8.28-1.47-13.51-.15-1.5-.33-3.01-.51-4.55-.15-1.47-.33-2.82-.48-4.18-1.21-9.82-2.31-15.8-4.69-21.07-2.05-5-4.95-9.03-9.35-13.92l-11.51-12.87,15.84,12.75c18.92,15.24,42.97,51.27,49.24,72.72.7,5.53,1.36,12.49,1.91,20.05-.18.68-.4,1.05-.73,1.05-1.36,0-7.22-5.3-13.02-11.81-7.11-7.98-12.8-11.17-17.64-9.89-3.41.94-6.09.34-6.71-1.32.18-.45.29-.94.26-1.47ZM1126.44,337.35c-.4.11-.84.23-1.21.38-1.1-.41-1.25-2.03-.26-4.63,1.21-3.27,3.81-5.94,5.79-5.94,3.01,0,2.97,3.35,1.17,6.32-1.28,1.88-3.12,3.24-5.5,3.87Z"/>
  <path class="st10" d="M-494.3,534.06v-1572.46h4598.11v3144.92H-494.3V534.06ZM945.78,836.14c16.57-3.87,3.45-8.65-23.83-8.65h-28.05l51.15-53.61c126.47-132.46,190.63-227.52,225.29-333.57,4.47-13.69,6.93-28.03,5.68-33.14-1.61-6.66,2.68-17.79,16.17-41.98,20.79-37.32,27.65-63.5,24.86-95.06-2.42-27.35-17.78-69.14-31.64-86.11l-10.63-12.98-8.84,8.46c-4.84,4.66-10.38,8.43-12.25,8.35-1.91-.04-9.13-8.65-16.02-19.11-26-39.31-59.88-64.97-125.37-94.99-26.66-12.19-66.11-18.51-115.06-18.43-54.19.08-87.2,6.24-128.48,23.85-93.83,40.1-155.8,114.17-178.02,212.85-17.93,79.71-.29,163.23,54.63,258.67,5.87,10.19,9.9,21.59,8.95,25.32-1.17,4.55,1.25,8.13,7.37,10.98,5.02,2.37,12.69,10.8,17.09,18.81,20.83,38.07,95.23,123.84,156.5,180.46,20.97,19.37,38.13,36.6,38.13,38.26s-20.53,2.97-45.61,2.97-46.57,1.58-47.74,3.5c-1.14,1.92,2.46,4.21,8.03,5.08,14.78,2.29,148.03,2.33,157.71.08ZM1639.02,719.82c.99-10.27,2.05-11.06,13.27-9.71,20.2,2.41,31.17-21.1,18.52-39.65-4.73-6.92-8.87-8.16-25.67-7.71l-20.06.53v32.58c0,17.91,1.14,33.74,2.53,35.14,4.95,5.08,10.3-.19,11.4-11.17ZM1480.47,701.65c9.35-14.63,5.54-22.04-14.89-29-23.32-7.94-24.42-16.33-2.13-16.33,19.98,0,24.35-7.98,6.23-11.44-20.28-3.91-33.22,2.22-34.58,16.36-.99,10.35.44,12.6,11,17.3,6.67,3.01,15.14,6.4,18.85,7.6,3.7,1.17,6.01,4.25,5.17,6.85-1.72,5.12-19.03,5.79-29.3,1.17-4.91-2.22-6.42-1.17-6.42,4.7,0,9.22,4.44,11.32,24.68,11.7,12.58.26,16.61-1.43,21.38-8.92ZM1511.41,691.76c1.61-14.78,2.93-16.74,11.92-17.83,9.83-1.17,10.08-.71,10.08,18.17,0,16.4.95,19.11,6.42,17.98,5.28-1.09,6.27-4.85,5.57-21.63-.95-22.83-4.8-27.27-22.07-25.47-11.33,1.17-11.92.6-11.92-11.44,0-10.08-1.32-12.45-6.42-11.44-3.92.79-6.31,4.51-6.16,9.67.15,4.63.55,20.43.92,35.06.48,19.41,1.91,26.26,5.24,25.13,2.53-.87,5.39-9.07,6.42-18.21ZM1603.08,703.35c14.3-14.67,5.46-41.38-13.64-41.38-9.72,0-23.36,6.32-27.54,12.79-5.1,7.79-2.82,17.64,6.16,26.9,10.93,11.17,25.12,11.85,35.02,1.69ZM1759.21,701.5c11.99-12.26,7.37-21.86-14.01-29.19-9.53-3.24-16.13-7.98-16.9-12.15-1.14-6.09.59-6.58,15.58-4.48,12.98,1.84,16.87,1.2,16.87-2.78,0-11.36-27.87-13.35-40.48-2.86-15.69,13.05-3.67,30.73,23.98,35.29,4.03.64,7.33,3.72,7.33,6.77,0,4.33-4.44,5.49-19.25,5.08-19.73-.53-24.2,2.82-12.83,9.63,11.88,7.11,29.99,4.66,39.71-5.3ZM1790.09,698.01c0-18.43,3.3-24.75,12.83-24.75s12.83,6.32,12.83,25.09,8.73,13.96,11-6.58c1.61-14.71,2.9-16.63,11-16.63s9.28,1.62,10.3,18.09c.73,11.96,2.6,17.61,5.5,16.67,5.9-1.99,7.74-35.85,2.31-42.58-5.06-6.21-23.91-7.19-27.39-1.39-1.58,2.63-3.85,2.71-6.78.19-2.42-2.07-12.98-3.54-23.5-3.31l-19.1.45v23.81c0,18.66,1.17,23.81,5.5,23.81,3.81,0,5.5-3.95,5.5-12.87ZM1918.42,689.99c0-10.46-1.98-21.03-4.4-23.51-7.33-7.52-35.93-4.82-35.93,3.42,0,1.84,6.75,3.35,14.96,3.35,19.47,0,17.64,8.65-2.38,11.29-9.97,1.32-14.7,3.95-15.58,8.65-2.24,12,6.01,17.42,25.34,16.59l18-.79v-19ZM1948.45,694.92c.95-13.17,2.93-16.85,11.22-20.92,14.74-7.22,12.36-11.4-6.42-11.1l-16.5.26v23.85c0,18.28,1.25,23.85,5.28,23.85,3.59,0,5.65-5.12,6.42-15.95ZM2009.21,704.29c.88-2.75-1.69-4.7-6.16-4.7-10.89,0-11.18-24.49-.29-27.42,4.03-1.09,7.33-3.8,7.33-6.09s-3.3-4.1-7.33-4.1c-4.88,0-7.33-2.52-7.33-7.52s-2.46-7.52-7.74-7.52-7.04,1.81-5.79,5.19c1.1,2.86.11,7.07-2.16,9.4-3.04,3.12-2.97,5.38.29,8.73,2.42,2.48,4.4,10.61,4.4,18.06s2.05,15.65,4.55,18.21c5.5,5.64,18.15,4.25,20.24-2.22ZM2127.43,703.35c13.35-13.69,8.43-24.11-15.18-32.16-21.82-7.41-21.52-14.86.55-14.86,18.63,0,23.69-7.6,7.48-11.25-39.34-8.88-55.29,23.74-17.86,36.57,22.95,7.82,21.08,16.29-3.41,15.24-19.54-.83-24.46,2.97-12.83,9.93,11.07,6.62,33.22,4.78,41.25-3.46ZM2160.43,691.76c1.61-14.71,2.9-16.63,11-16.63s9.2,1.47,9.46,16.93c.18,12,1.8,16.93,5.5,16.93,3.45,0,5.83-5.68,7.04-16.93,1.5-13.92,3.3-17.15,9.94-18.09,8.91-1.32,13.71,9.67,11.44,26.15-.81,5.94.62,8.88,4.29,8.88,7,0,9.79-33.82,3.45-41.68-5.06-6.21-23.91-7.19-27.39-1.39-1.58,2.63-3.85,2.71-6.75.19-2.42-2.03-13.02-3.65-23.54-3.57l-19.1.15v21.59c0,11.85,1.14,22.76,2.53,24.15,5.57,5.76,10.41-.9,12.14-16.67ZM2255.03,685.18c.95-20.24.26-23.21-5.5-23.21s-6.45,2.93-5.35,24.64c1.61,32.01,9.31,31,10.85-1.43ZM2284.33,673.52c.81-27.12,0-34.5-3.67-33.25-3.3,1.13-5.06,12.15-5.79,36.49-.81,27.12,0,34.5,3.67,33.25,3.3-1.13,5.06-12.15,5.79-36.49ZM2343.58,705.45c3.67-4.55,1.83-5.61-11.48-6.58-21.27-1.58-20.2-8.39,1.58-9.82,14.23-.94,17.42-2.45,17.42-8.28,0-9.22-13.53-18.81-26.47-18.81-11.95,0-24.86,11.81-24.86,22.76,0,18.96,32.71,34.46,43.82,20.73ZM2406.21,689.24c.15-23.85-.33-24,19.62,4.97l6.89,10.01,9.31-17.38c5.1-9.52,10.78-17.34,12.61-17.34s2.86,8.88,2.31,19.75c-.81,15.24.18,19.75,4.33,19.75s5.54-7.15,6.38-33.18c1.06-32.73.95-33.18-7.33-31.98-5.72.83-11.33,6.92-17.56,19.07-5.06,9.82-9.97,17.83-11,17.83s-5.94-8.01-11-17.83c-6.16-12-11.88-18.28-17.42-19.07-8.03-1.17-8.25-.3-8.25,32.92,0,27.84,1.03,34.12,5.5,34.12s5.54-4.97,5.61-21.63ZM2526.3,705c9.86-7.11,10.96-26.07,2.09-36.15-8.21-9.33-28.6-8.95-37.95.64-10.23,10.5-9.28,24.23,2.31,33.59,11.51,9.29,22.44,9.93,33.55,1.92ZM2559.41,694.54c.81-9.78,3.81-15.69,10.08-19.9,12.69-8.54,11.15-11.66-5.72-11.66h-14.67v24.26c0,17.72,1.25,23.85,4.58,22.72,2.53-.87,5.1-7.82,5.72-15.42ZM2629.7,705.34c3.81-4.74,2.57-5.49-8.14-5.08-6.97.26-14.56-.71-16.87-2.18-9.17-5.79-3.41-9.78,14.08-9.78,15.66,0,18.33-1.05,18.33-7.26,0-10.83-10.05-19.07-23.17-19-13.71.04-18.22,2.67-23.94,13.77-6.01,11.77-5.35,15.42,4.77,25.84,10.19,10.42,27.94,12.3,34.94,3.69ZM2664.79,706.77c3.78-6.24-4.69-13.47-9.75-8.28-4.25,4.36-1.58,12.38,4.07,12.38,1.8,0,4.33-1.84,5.68-4.1ZM2254.48,648.65c2.79-7.41-.48-10.8-7.66-7.98-3.23,1.28-4.69,4.66-3.45,7.98,2.79,7.45,8.36,7.45,11.11,0ZM1566.78,586.73c1.39-7.22,3.59-22.5,4.88-33.86l2.38-20.69,30.1,1.28c24.24,1.02,34.32-.38,51.77-7.07,50.86-19.6,83.16-81.22,71.83-137.12-8.18-40.36-29.37-58.35-68.86-58.35-24.97,0-40,5.79-56.72,21.82l-10.08,9.67v-27.72h-54.05l-4.25,34.08c-2.35,18.73-5.9,51.73-7.88,73.28-1.98,21.56-6.86,60.83-10.85,87.24-3.96,26.41-7.22,53.61-7.26,60.42l-.04,12.38,28.27-1.09,28.27-1.09,2.49-13.17ZM638.73,579.21c4.03-2.67,1.32-3.65-10.08-3.69-8.58-.04-15.58,1.62-15.58,3.69,0,4.82,18.44,4.82,25.67,0ZM1450.55,527.1c20.46-9.29,41.32-28.51,50.09-46.16,13.27-26.63,7.77-66.55-11.7-84.94-10.3-9.74-40.77-24-69.27-32.46-23.61-7-36.59-17.91-36.59-30.81,0-11.62,11.44-19.26,33.92-22.65,19.07-2.82,60.87,3.65,76.86,11.96,8.84,4.59,10.3,4.44,13.24-1.43,1.8-3.65,4.25-11.7,5.39-17.91,1.14-6.21,3.15-14.14,4.47-17.64,5.65-14.93-58.15-32.24-100.87-27.35-30.87,3.54-52.4,11.89-69.67,27.05-46.75,41.08-35.46,104.62,22.51,126.51,8.8,3.31,26.62,10.01,39.64,14.86,28.71,10.76,39.05,22.46,33.4,37.77-9.2,24.83-59.14,27.54-107.33,5.87-14.04-6.32-27.54-10.72-29.99-9.74-5.65,2.22-18.26,47.85-14.34,51.76,5.61,5.61,43.41,19.37,61.6,22.46,28.09,4.78,80.74.98,98.64-7.15ZM1885.17,526.28c23.61-10.38,52.32-41.87,60.35-66.1,11.84-35.66,5.87-80.99-13.53-102.29-17.56-19.34-34.58-25.09-74.07-25.09-32.63,0-38.72,1.13-55.15,10.01-41.65,22.53-62.33,60.57-59.66,109.73,1.72,32.2,9.75,51.01,27.87,65.19,27.35,21.37,76.75,25.09,114.18,8.54ZM2076.09,532.75l20.17-4.33,1.83-21.22,1.87-21.22-23.72.53c-32.08.71-34.1-3.54-27.35-57.78,2.71-21.71,4.99-41.61,5.06-44.2.11-3.31,7.81-4.7,25.89-4.7,24.31,0,26-.56,29.33-9.67,1.98-5.3,3.59-15.46,3.59-22.57v-12.9h-23.83c-23.72,0-23.83-.04-23.83-10.65,0-5.87,1.87-20.31,4.18-32.09,2.31-11.77,3.19-22.42,1.98-23.66-2.16-2.22-56.65,11.62-60.28,15.31-1.03,1.05-3.7,12.56-5.98,25.58l-4.11,23.62-17.38,1.13c-15.14,1.02-17.42,2.26-17.45,9.4-.04,4.55-1.06,14.63-2.31,22.38l-2.27,14.11h37.03l-3.19,12.23c-1.76,6.73-5.94,31.56-9.28,55.22-8.4,59.63-2.75,77.23,27.72,86.11,16.83,4.93,37.51,4.7,62.33-.64ZM2448.93,530.08c5.68-2.18,16.5-10.12,24.02-17.61,7.52-7.52,14.12-12.9,14.67-12.04.55.9,3.52,6.73,6.6,12.94,6.75,13.51,22,19.45,45.1,17.57,15.11-1.24,16.9-2.41,18.74-12.3,1.14-5.98,3.01-15.99,4.18-22.2,1.8-9.63.99-11.29-5.5-11.29s-7.63-2.33-7.63-12.6c0-11.47,11.33-93.48,16.79-121.43l2.24-11.51-27.46-4.82c-41.47-7.26-91.38-3.87-116.24,7.94-28.6,13.54-40.96,25.62-54.63,53.27-25.63,51.8-15.66,112.22,21.71,131.48,14.3,7.37,41.84,8.61,57.42,2.6ZM2850.15,529.77c16.43-5.61,16.72-6.02,19.54-26.41l2.46-17.53-21.49,1.99c-17.09,1.58-22.73.71-27.68-4.36-7.55-7.79-7.48-16.06.59-64.14l6.31-37.62h28.53c32.34,0,33.99-1.28,35.9-28.21l1.21-16.93-28.86-1.09-28.82-1.13,2.24-19.79c1.25-10.87,3.34-25.17,4.62-31.79,2.16-11.02,1.54-12.04-7-12.04-12.87,0-47.59,8.05-52.07,12.08-2.02,1.84-5.32,13.81-7.33,26.67l-3.67,23.32-18.33,2.22c-10.08,1.2-18.88.79-19.54-.94-2.09-5.38-29.7-3.46-42.06,2.9-6.45,3.35-17.31,11.4-24.13,17.87l-12.39,11.81,2.38-16.14,2.38-16.14-28.12,1.09c-20.46.79-28.86,2.63-30.91,6.73-2.6,5.23-29.3,172.97-29.15,183.39.04,3.39,8.73,4.7,31.02,4.7h31.02l1.94-12.23c1.06-6.73,4.47-28.14,7.59-47.63,9.57-59.81,19.91-71.81,61.82-71.81h19.91l2.57-22.57c2.82-24.98,9.17-34.35,9.17-13.54,0,12.11,1.06,13.39,12.83,15.69,11.44,2.18,12.83,3.76,12.83,14.26,0,6.51-2.49,25.09-5.5,41.31-14.34,76.86-2.27,100.25,51.7,100.29,14.34,0,31.64-1.92,38.5-4.29ZM2196.84,521.84c1.76-4.66,6.05-28.78,9.46-53.61,8.58-62.07,9.35-63.69,20.83-45.03,5.1,8.2,22,35.66,37.62,61.02l28.42,46.08h32.41c17.82,0,33.37-1.58,34.54-3.54,1.17-1.92-5.57-15.91-14.96-31.04-31.61-50.9-42.83-68.8-53.35-85.13l-10.49-16.25,60.57-64.48c33.29-35.47,60.54-65.83,60.54-67.45s-16.1-3.01-35.75-3.01l-35.75-.08-52.18,55.34c-28.67,30.4-53.2,54.25-54.45,52.93-1.25-1.28.62-22.35,4.14-46.8,9.53-65.95,12.06-59.29-22.92-60.57l-30.03-1.09-2.2,14.26c-1.21,7.82-3.74,24.41-5.57,36.83-18.96,126.93-26.44,176.13-29.41,193.21-1.91,11.1-2.57,21.71-1.47,23.51,1.1,1.84,14.34,3.35,29.37,3.35,24.97,0,27.65-.75,30.62-8.46ZM1237.14,150.16c10.45-10.72,10.78-11.85,5.06-17.87-3.37-3.5-8.18-9.48-10.67-13.24-4.25-6.4-5.39-6.02-17.71,5.87l-13.13,12.75,11.44,11.7c6.27,6.47,11.99,11.85,12.65,12,.66.15,6.23-4.89,12.36-11.21ZM1144.67,98.93c.04-5,6.49-13.81,16.5-22.61l16.43-14.41-10.85-7.49c-5.94-4.1-14.56-15.54-19.1-25.35-9.17-19.79-13.9-22.72-13.9-8.61,0,10.19-22.37,35.85-31.28,35.85s-5.94,6.47,7.44,14.56c11.59,7,18.99,18.55,25.59,39.88,1.91,6.21,2.86,6.51,5.72,1.88,1.87-3.05,3.45-9.22,3.45-13.69ZM1227.35,30.12c-8.43-9.59-10.05-9.56-15.99.23-4.07,6.7-3.85,8.95,1.65,15.16,6.34,7.22,6.53,7.22,13.75-.23,7.15-7.34,7.15-7.71.59-15.16ZM868.34,539.86c2.38-6.36-10.85-11.21-26.91-9.93-8.54.68-14.37-1.69-21.08-8.58-9.53-9.78-12.36-21.14-5.32-21.14,2.2,0,3.26,2.11,2.42,4.7-2.35,6.96,14.63,21.63,24.97,21.63,16.06,0,28.93-19.94,20.83-32.35-4.33-6.7-19.32-13.54-24.86-11.36-2.79,1.09-6.05.38-7.26-1.58-1.17-1.99.15-3.61,2.93-3.61s5.13-2.52,5.13-5.64-1.47-5.64-3.3-5.64-2.31-1.54-1.17-3.42c1.14-1.92,0-4.33-2.53-5.38-2.53-1.02,3.81-2.03,14.15-2.18,38.02-.6,60.02,35.96,42.64,70.87-6.27,12.53-24.82,24.79-20.64,13.62ZM873.33,421.17c-3.34-2.14-3.19-3.35.59-4.93,2.75-1.17-8.76-1.5-25.59-.71-16.83.75-29.96.71-29.15-.11s34.36-10.08,74.58-20.58c40.22-10.5,74.99-21.14,77.26-23.62,2.24-2.52,5.94-10.27,8.21-17.23l4.11-12.72-11.4,2.37c-6.31,1.28-16.87,2.33-23.47,2.33-11.92,0-11.99.15-10.05,15.05,2.38,18.28-4.88,20.77-11.15,3.76-4.4-11.96-6.71-12.6-32.6-8.99-14.63,2.07-16.24,3.27-14.85,10.87,2.27,12.19-4.84,14.86-12.36,4.63-5.9-8.05-8.14-8.5-28.56-6.06-12.21,1.5-23.43,1.88-25.01.9-6.89-4.36-1.32-8.43,18.26-13.32,18.66-4.66,21.23-6.43,22.26-15.46,1.43-12.79,10.67-13.39,15.25-1.02,3.04,8.2,4.95,8.95,17.31,6.92,29.26-4.78,32.19-6.47,33.4-19.19,1.1-11.29.48-11.96-11-11.93-16.57.04-94.64,7-104.17,9.25-5.68,1.35-8.84-.71-12.06-7.98-2.38-5.38-3.89-10.12-3.3-10.5,1.83-1.2,61.53-9.67,109.23-15.54,25.23-3.08,51.63-6.55,58.67-7.67,66.55-10.8,75.46-10.46,71.36,2.75-1.36,4.4-2.75,9.89-3.08,12.23-.37,2.33-1.94,6.36-3.52,8.95-1.58,2.6-1.72,4.7-.37,4.7s.88,2.11-1.14,4.7c-1.98,2.6-5.72,14.03-8.25,25.39-2.57,11.36-5.61,22.38-6.78,24.45-1.21,2.07-2.49,5.98-2.9,8.65-1.54,10.46-12.28,22.38-22.15,24.6-5.68,1.24-31.24,8.05-56.76,15.05-25.52,7-48.4,11.51-50.82,9.97ZM962.87,328.89c11.59-1.77,18.33-5.04,21.01-10.16,6.82-13.09-4.47-16.55-38.43-11.77-16.02,2.26-16.83,2.93-14.67,12.23,3.23,13.81,5.02,16.29,10.34,14.18,2.57-1.02,12.36-3.01,21.74-4.48ZM1889.09,697.7c-3.89-4.82-2.82-5.64,7.33-5.64s11.22.83,7.33,5.64c-2.49,3.12-5.79,5.64-7.33,5.64s-4.84-2.52-7.33-5.64ZM1589.33,485.05c-9.97-4.1-10.38-11.93-2.6-51.76,4.77-24.34,7.7-30.96,18.3-41.23,10.67-10.31,15.36-12.23,30.36-12.23,24.71,0,35.05,11.32,35.35,38.63.26,28.55-12.17,52.7-32.38,62.71-16.35,8.13-35.13,9.59-49.02,3.87ZM1811.35,481.21c-10.93-11.21-11.15-12.15-9.53-40.82,1.83-32.62,9.68-48.64,28.71-58.76,10.78-5.68,34.91-7.41,45.58-3.24,15.11,5.94,21.3,42.89,12.36,73.54-2.46,8.46-10.23,20.2-18.33,27.72-11.73,10.83-16.87,13.02-30.84,13.02s-18.74-2.03-27.94-11.47ZM2435.51,480.34c-19.18-9.97-22.44-35.51-8.91-70.12,7.92-20.35,29.85-34.16,54.19-34.16,10.63,0,17.89,1.84,19.03,4.82.99,2.67-.7,18.21-3.74,34.53-6.53,34.91-19.03,56.73-36.92,64.4-14.85,6.36-12.5,6.32-23.65.53Z"/>
</svg>